<?xml version="1.0" encoding="UTF-8" standalone="no"?>
<!DOCTYPE svg PUBLIC "-//W3C//DTD SVG 1.1//EN" "http://www.w3.org/Graphics/SVG/1.1/DTD/svg11.dtd">
<svg width="100%" height="100%" viewBox="0 0 2550 2580" version="1.1" xmlns="http://www.w3.org/2000/svg" xmlns:xlink="http://www.w3.org/1999/xlink" xml:space="preserve" xmlns:serif="http://www.serif.com/" style="fill-rule:evenodd;clip-rule:evenodd;stroke-linejoin:round;stroke-miterlimit:2;">
    <g transform="matrix(1,0,0,1,-3040.24,-7438.87)">
        <g id="Page-Bubbles" serif:id="Page Bubbles" transform="matrix(1,0,0,0.781743,3040.24,7438.87)">
            <rect x="0" y="0" width="2550" height="3300" style="fill:none;"/>
            <clipPath id="_clip1">
                <rect x="0" y="0" width="2550" height="3300"/>
            </clipPath>
            <g clip-path="url(#_clip1)">
                <g transform="matrix(1,0,0,1.27919,-3040.24,-9515.74)">
                    <path d="M3051.97,8991.95C3075.64,8991.76 3669.97,8994.33 3859.44,8975.63C4314.81,8930.69 4557.82,8765.26 4683.36,8642.96C4898.63,8433.22 4895.57,8250.06 5044.4,7834.54C5189.95,7428.13 5589.98,7458.5 5589.98,7458.5L5589.98,8938.62L5590.24,8938.61L5590.24,10018.6L3040.24,10018.6L3040.24,8991.95L3051.97,8991.95Z" style="fill:rgb(88,176,215);"/>
                </g>
                <g transform="matrix(1,0,0,1.27919,-3040.24,-9515.74)">
                    <path d="M3040.24,8118.95C3040.24,8118.95 3213.29,7937.23 3616.91,8007.66C3973,8069.8 4163.31,8367.02 4616.39,8572.38C5024.22,8757.23 5458.64,8766 5590.24,8728.74C5590.24,8728.74 5590.24,10018.6 5590.24,10018.6L3040.24,10018.6L3040.24,8118.95Z" style="fill:rgb(251,181,87);"/>
                </g>
                <g transform="matrix(1,0,0,1.27919,-3040.24,-9515.74)">
                    <path d="M2909.6,8030.65C3697.91,7144.77 4833.36,7249.72 4473.66,8370.91C4351.69,8751.07 4740.31,8895.55 4973.86,8908.59C5393.06,8931.98 5590.24,8915 5590.24,8915L5590.24,10018.6L2847.63,10018.6L2862.61,9030.87L2909.6,8030.65Z" style="fill:rgb(94,206,209);"/>
                </g>
                <g transform="matrix(1,0,0,1.27919,-3040.24,-9515.74)">
                    <path d="M5589.98,10018.6L3040.24,10018.6L3040.24,8976.9C3027.81,9012.49 3291.08,9156.57 3596.83,9118.68C3823.29,9090.62 3973.6,8863.72 4082.86,8674.11C4237.36,8406 4397.43,7904.94 4654.17,7685.09C5153.45,7257.54 5589.98,7942.39 5589.98,7942.39L5589.98,10018.6Z" style="fill:rgb(232,137,138);"/>
                </g>
            </g>
        </g>
    </g>
</svg>
