<svg id="Layer_1" data-name="Layer 1" xmlns="http://www.w3.org/2000/svg" viewBox="0 0 1573.2 1080"><defs><style>.cls-1{opacity:0.5;}.cls-2{fill:#00a8e3;stroke:#0aa7e0;stroke-miterlimit:10;stroke-width:3.12px;opacity:0.4;}.cls-3{fill:#ac91f8;}.cls-4{fill:#399f8f;fill-opacity:0.7;}.cls-5{fill:#c12caa;}.cls-5,.cls-84{fill-opacity:0.6;}.cls-6{fill:#40b9be;}.cls-11,.cls-47,.cls-48,.cls-51,.cls-52,.cls-53,.cls-54,.cls-6,.cls-63,.cls-68,.cls-69,.cls-7,.cls-70,.cls-71,.cls-73,.cls-74,.cls-75,.cls-76,.cls-77,.cls-78,.cls-8,.cls-80{fill-opacity:0.85;}.cls-7,.cls-84{fill:#2e9ccd;}.cls-8{fill:#749ae5;}.cls-9{fill:#d60202;fill-opacity:0.2;}.cls-10{fill:#4969c7;fill-opacity:0.17;}.cls-11{fill:#9b60c3;}.cls-12{fill:#ad7ee0;}.cls-13{fill:#8cd686;}.cls-13,.cls-72{fill-opacity:0.45;}.cls-14{fill:#c74688;}.cls-15{fill:#c50ec5;}.cls-16{fill:#4ab083;}.cls-17{fill:#4ab0a7;}.cls-18{fill:#237fc3;}.cls-19{fill:#a3c323;}.cls-20{fill:#ffe714;}.cls-21{fill:#a5acee;}.cls-21,.cls-23,.cls-24,.cls-25,.cls-26,.cls-27,.cls-28,.cls-29,.cls-30,.cls-32,.cls-33,.cls-34,.cls-35,.cls-37,.cls-40,.cls-41,.cls-45{fill-opacity:0.8;}.cls-22{fill:#f891c7;}.cls-23{fill:#eec2a5;}.cls-24{fill:#c6a5ee;}.cls-25{fill:#3f60df;}.cls-26{fill:#5a77e9;}.cls-27{fill:#9f4cc5;}.cls-28{fill:#d94bab;}.cls-29{fill:#3688e6;}.cls-30{fill:#36d6e6;}.cls-31{fill:#ff693a;}.cls-31,.cls-49,.cls-50,.cls-81,.cls-82{fill-opacity:0.65;}.cls-32{fill:#7e3ee1;}.cls-33{fill:#b865ed;}.cls-34{fill:#7dc0f7;}.cls-35{fill:#c3383d;}.cls-36{fill:#35659d;}.cls-37{fill:#4478b4;}.cls-38{fill:#e474c2;}.cls-38,.cls-55,.cls-58,.cls-79,.cls-83{fill-opacity:0.75;}.cls-39{fill:#ec338f;}.cls-39,.cls-46{fill-opacity:0.55;}.cls-40{fill:#36e6d2;}.cls-41{fill:#e67e36;}.cls-42{fill:#16a08a;}.cls-43{fill:#82b6fe;}.cls-44{fill:#eea5a6;}.cls-45{fill:#eeeda5;}.cls-46{fill:#00a53c;}.cls-47{fill:#ff8bb8;}.cls-48{fill:#74e0c9;}.cls-49{fill:#78a2f1;}.cls-50{fill:#86d6a6;}.cls-51{fill:#52c9d8;}.cls-52{fill:#4fbeef;}.cls-53{fill:#e8a246;}.cls-54{fill:#b846e8;}.cls-55{fill:#f19a7c;}.cls-56{fill:#8876ea;}.cls-57{fill:#fca099;}.cls-58{fill:#3e8be7;}.cls-59{fill:#c054c2;}.cls-60{fill:#af689c;}.cls-61{fill:#aeea76;}.cls-62{fill:#ea768e;}.cls-63{fill:#b65599;}.cls-64{fill:#d876ea;}.cls-65{fill:#e4605f;}.cls-66{fill:#686ddf;}.cls-67{fill:#ea8c76;}.cls-68{fill:#eba446;}.cls-69{fill:#dc82c3;}.cls-70{fill:#e89346;}.cls-71{fill:#ff5f9d;}.cls-72{fill:#e4ff5f;}.cls-73{fill:#5fc5ff;}.cls-74{fill:#6c65f0;}.cls-75{fill:#e89d62;}.cls-76{fill:#7974e4;}.cls-77{fill:#cdbc2e;}.cls-78{fill:#de83d8;}.cls-79{fill:#e86546;}.cls-80{fill:#e396de;}.cls-81{fill:#e47475;}.cls-82{fill:#e02ae8;}.cls-83{fill:#cd972e;}.cls-85{fill:#baa7f0;}.cls-86{fill:#fc45ec;}.cls-87{fill:#7e91e0;}.cls-88{fill:#f197f6;}.cls-89{fill:#97b2f6;}.cls-90{fill:#97caf6;}.cls-91{fill:#7ea2fd;}.cls-92{fill:#6579ea;}.cls-93{fill:#7bbcf0;}.cls-94{fill:#c2e777;}.cls-95{fill:#6ad394;}.cls-96{fill:#ac6ad3;}.cls-97{fill:#e668c3;}.cls-98{fill:#e68468;}</style></defs><title>BubbleyBackground</title><g id="Looseleaf" class="cls-1"><line class="cls-2" x1="-0.13" y1="29.3" x2="1573.33" y2="29.3"/><line class="cls-2" x1="-0.13" y1="64.74" x2="1573.33" y2="64.74"/><line class="cls-2" x1="-0.13" y1="100.18" x2="1573.33" y2="100.18"/><line class="cls-2" x1="-0.13" y1="171.06" x2="1573.33" y2="171.06"/><line class="cls-2" x1="-0.13" y1="241.93" x2="1573.33" y2="241.93"/><line class="cls-2" x1="-0.13" y1="277.37" x2="1573.33" y2="277.37"/><line class="cls-2" x1="-0.13" y1="383.69" x2="1573.33" y2="383.69"/><line class="cls-2" x1="-0.13" y1="135.62" x2="1573.33" y2="135.62"/><line class="cls-2" x1="-0.13" y1="206.5" x2="1573.33" y2="206.5"/><line class="cls-2" x1="-0.13" y1="312.81" x2="1573.33" y2="312.81"/><line class="cls-2" x1="-0.13" y1="348.25" x2="1573.33" y2="348.25"/><line class="cls-2" x1="-0.13" y1="419.12" x2="1573.33" y2="419.12"/><line class="cls-2" x1="-0.13" y1="454.56" x2="1573.33" y2="454.56"/></g><circle class="cls-3" cx="483.88" cy="802.43" r="63.25"/><path class="cls-4" d="M276.1,702.32c71,21.15,95.37,87.29,169,99.56,75.37,12.56,111-60,176.45-56.85,51.94,2.48,68.12,49.14,140.57,65.13,64,14.13,99.3-36.29,160.34-37,100.45-1.1,72.59,48.36,160.74,64.31,66.21,12,94.34-10.63,148.66-30.41,32.83-12,58.6,7.47,90.38,3.9,9.81-1.1,18.54-6.44,26-12.65,37.51-31.29,157.19-98.53,155.89-146.22-5.43-199.6-506.8-151-627.76-145.39C761,512.12,649,512.12,536,539.76c-83.22,20.35-154,70.34-238.53,87.81-17.78,3.67-39.49,5.4-54.39,16.68-16.14,12.2,21.29,54.56,33.07,58.07Z"/><path class="cls-5" d="M315,540.69c71-21.15,101.62-115,175.26-127.23C565.65,400.9,627.66,500.19,688,484.54c50.33-13.07,41.67-94.37,93.37-110.17C844,355.21,886,454.11,947.07,454.77c100.46,1.1,113.67-108.51,164.57-118.9,65.93-13.45,104.83,80.26,159.15,100,32.83,11.95,58.6-7.47,90.39-3.9,9.81,1.1,18.53,6.44,26,12.65C1424.67,476,1444.25,533.3,1443,581c-4.59,168.53-247.66,197.48-381.84,184.9-46.75-4.38-74.85-44.53-136-45.54C872,719.47,835.31,754.41,804,755.71c-90.63,3.76-140.86-30.88-229.12-52.46-83.22-20.35-154-70.34-238.53-87.81-17.78-3.67-39.48-5.4-54.39-16.68C265.82,586.55,303.26,544.2,315,540.69Z"/><path class="cls-6" d="M1533.05,190.54s-36.82-159.36-8-176.6c64.75-38.69,166.24,231.16,140.76,215.46l-132.81-38.86Z"/><path class="cls-7" d="M1598,346.91c72-135.78-8-235.89-88.8-212-50.76,15-103.39,66.95-121.86,120-16.43,47.17-31.87,161,83.67,169.43,51.9,3.81,103.31-32.83,127-77.45Z"/><path class="cls-8" d="M1341.83,332.18C1128.66,476.81,995,339.55,831,374.53c-108.25,23.1-143.48,81.72-215.25,92.78C467,490.23,425.4,354,242.86,358.14-66,365.17-22.41,560.42-22.41,560.42l1595.11-4.51,17.53-643.79S1604.23,154.15,1341.83,332.18Z"/><path class="cls-9" d="M1676.88,196.54s-63.08-16.81-134.89,13c-45.73,19-95.59,65.95-123.31,112.14s-57.9,157.44-57.9,157.44l-27.3-32.43s16.13-129,113.1-215.57c136.94-122.27,221.51-47,221.51-47l8.79,12.47Z"/><path class="cls-10" d="M1169.36,452.8s16.68-69.89,74.28-126.23c36.67-35.87,97.44-62.49,147.06-67.76s151.75,17.92,151.75,17.92l-6.14-14.34s-116.33-52-230.71,2.08c-161.53,76.33-141.9,173.78-141.9,173.78l5.66,14.55Z"/><path class="cls-11" d="M922.61,534.57s-40.12-37.86,35.72-69.24c63.36-26.22,118,20.5,231.24,0,51.87-9.39,137.57-92.76,192.89-99.92,108.79-14.07,127.68,54.6,141.32,87.41l18.36,86.1-200.49,2.43-419-6.78Z"/><path class="cls-12" d="M120.05,371.62c-10.23,6.72-19.25-2.09-22.12-7.47-1.71-3.2-8.07-16.23,4.9-24.8,11.83-7.81,20,2.07,22.91,7.44S131.12,364.36,120.05,371.62Z"/><path class="cls-12" d="M145.77,381.71c-3.2,2.1-6-.66-6.92-2.34-.53-1-2.52-5.07,1.54-7.75,3.7-2.44,6.26.65,7.16,2.33S149.23,379.44,145.77,381.71Z"/><path class="cls-13" d="M-50.34,454.87S-83.95,192.06,96.51,191.51C275.94,191,233.29,334.16,342,372.83c218.15,77.56,220.15,8.74,336,22.78C940.5,427.46,910.24,595.73,910.24,595.73l-960.58-8.38Z"/><circle class="cls-14" cx="123.42" cy="982.42" r="49.48"/><circle class="cls-15" cx="23.43" cy="1000.8" r="8"/><path class="cls-15" d="M211.22,944.47a15.31,15.31,0,1,0,15.31-15.31A15.32,15.32,0,0,0,211.22,944.47Z"/><ellipse class="cls-16" cx="70.99" cy="1039.71" rx="16.27" ry="16.51"/><path class="cls-17" d="M258,987.81a24.15,24.15,0,1,0,24.15-24.15A24.17,24.17,0,0,0,258,987.81Z"/><circle class="cls-18" cx="29.25" cy="1063.95" r="9.15"/><circle class="cls-18" cx="1541.39" cy="1058.52" r="9.15"/><path class="cls-19" d="M317.58,950.45a7.87,7.87,0,1,0,7.87-7.87A7.88,7.88,0,0,0,317.58,950.45Z"/><path class="cls-20" d="M193.43,1021.31a5.21,5.21,0,1,0,5.2-5.2A5.2,5.2,0,0,0,193.43,1021.31Z"/><path class="cls-21" d="M1550.79,667.2l-145.15,17.95L1423,825.7l145.16-17.94Z"/><circle class="cls-22" cx="638.47" cy="746.29" r="33.79"/><path class="cls-23" d="M1438.91,725.54l-133.13-44.18L1263,810.27l133.13,44.18,42.78-128.91Z"/><path class="cls-24" d="M522.23,447.91l-255.1,89.51,86.67,247,255.1-89.51-86.67-247Z"/><path class="cls-25" d="M796,577.74,609.93,525.89,560.12,704.68l186.07,51.84Z"/><path class="cls-26" d="M1237,623l-125.68,73.6L1182,817.33l125.68-73.59Z"/><path class="cls-27" d="M1102,766.65l-51.2-3-2.92,49.19,51.2,3,2.92-49.19Z"/><path class="cls-28" d="M968.68,683.91l-55.12,7.68,7.38,53,55.12-7.68-7.38-53Z"/><path class="cls-29" d="M1681.24,918.58l-68.6-179.33L1439,805.68,1507.59,985Z"/><path class="cls-30" d="M402.68,830,334.07,650.69,160.42,717.12,229,896.46,402.68,830Z"/><path class="cls-31" d="M1573.77,886.88l-107.9-122.35L1348.31,868.2l107.91,122.35,117.55-103.67Z"/><path class="cls-32" d="M1340.3,732.17l-65.74-21.82L1253.43,774l65.74,21.82Z"/><path class="cls-29" d="M292.78,906.28,181.22,865.89l-39.11,108,111.55,40.39Z"/><path class="cls-29" d="M55.79,679.82-106,783.28-5.78,939.91,156,836.45,55.79,679.82Z"/><path class="cls-29" d="M1329.49,938.2l83-30.06,29.11,80.39-83,30.06Z"/><path class="cls-16" d="M1371,925.21a16.52,16.52,0,1,0,2.94-23A16.41,16.41,0,0,0,1371,925.21Z"/><path class="cls-17" d="M1459.18,1013.65a24.15,24.15,0,1,1-4.07,33.9A24.16,24.16,0,0,1,1459.18,1013.65Z"/><path class="cls-18" d="M1370.08,872.86a9.15,9.15,0,1,0,1.55-12.85A9.16,9.16,0,0,0,1370.08,872.86Z"/><path class="cls-33" d="M1119.37,852.65l34.7-12.56,12.16,33.59-34.69,12.56-12.17-33.59Z"/><path class="cls-34" d="M1246,897l40,8.75-8.48,38.71-40-8.76Z"/><path class="cls-35" d="M149,1046.91,128.77,1038l-8.63,19.62,20.27,8.92Z"/><path class="cls-35" d="M1410.24,1007.45l22,2.72-2.64,21.28-22-2.73,2.64-21.27Z"/><path class="cls-36" d="M311,770.62l-71.92,25.63,24.82,69.64,71.92-25.64L311,770.62Z"/><path class="cls-37" d="M1300.66,795.34l92.12,32.83L1361,917.38l-92.13-32.84Z"/><path class="cls-38" d="M1515.19,633s85.49-105.69,126.39-287.57c28.63-127.31,41.78-326.26,18.72-345-23.24-18.86-111-23.18-154.08,60.52-25.35,49.2-10.93,146.47-43.76,207.27-43.71,81-185.87,43.16-316.62,133.29-226.63,156.23-118.6,122.09,240.88,164.22L1515.19,633Z"/><path class="cls-39" d="M-59.75,90.42c-6.35-42.18-9.09-72.51-.94-79.13C-37.45-7.57,21,.64,64.07,84.33c14.86,28.85,29.15,74.1,45,118.85,5.87,4.16,12,9,18.41,14.52,25.72,22.31,38.06,70.8,58.82,111.56,63.53,32.59,173.46,24.29,276.2,95.28,77.73,53.71,115,207.92-10.52,281.68-70,41.16-151.66,5.87-223.37,53.52-53.85,35.77-62,130.19-101.13,164.11-57.7,50.06-74.85,24.06-113,47.72-36.35,22.56-88.28,101.54-92.53,92.54-12.8-27.16-51.31-330.8,25.91-425.23q20.69-25.29,41.64-47c-9.14-17.51-16.29-39-21-64.85q-10.36-11.72-20.67-24.31C-129.28,408.25-90.77,104.61-78,77.45c1.23-2.6,8.3,3.17,18.22,13Z"/><path class="cls-40" d="M81.74,807.58,50,785.67,28.76,816.43l31.77,21.91Z"/><path class="cls-40" d="M1483.59,873.11l31.77-21.91L1536.58,882l-31.77,21.91Z"/><path class="cls-41" d="M85.77,888.39,11.26,926.61l37,72.16,74.52-38.22Z"/><path class="cls-41" d="M1542.83,946.23l74.52,38.22-37,72.16-74.51-38.22,37-72.16Z"/><path class="cls-42" d="M149.75,649.72,30.33,565.28-51.44,680.91,68,765.36l81.77-115.64Z"/><path class="cls-43" d="M174.15,580.47l-106,100.8,97.6,102.62,106-100.79-97.6-102.63Z"/><path class="cls-44" d="M321,605.7,181.11,648.46l41.41,135.43,139.87-42.76L321,605.7Z"/><path class="cls-45" d="M139.86,799.37,81.74,821l21,56.28,58.12-21.67Z"/><path class="cls-45" d="M1425.47,864.9l58.12,21.67-21,56.28-58.12-21.67Z"/><path class="cls-46" d="M1257.27,640.79c-20.92-16.73,3.32-120.49,135.33-264.95,63.9-69.92,172.47-128,191.65-116.76,29.54,17.38-29.71,133.76-110.82,232.79C1393.83,589.05,1293,669.34,1257.27,640.79Z"/><ellipse class="cls-47" cx="286.54" cy="515.83" rx="73.94" ry="71.93"/><path class="cls-48" d="M744.55,435.82c-46,2.5-77.35,42.84-139.33,29C565.79,456,529.54,412.69,470.09,403c-110.51-18-158.19,40.88-152.53,73.64,2.45,14.2,18.06,31.31,31.54,48.6,32.33,41.48,205.23,59.64,274.47,63.88s304.23,56.15,301-43.74c-.29-9,64.46-.67,97.15-12.19,11.1-3.91,14.07-22.32,15.52-28,5.11-20-55.86-56.78-134.69-46.46C838.82,467.07,804.93,432.53,744.55,435.82Z"/><path class="cls-49" d="M201,381.74c-31.78-30.18-81.45-21.44-111.8-75.19C69.89,272.36,77.67,214.19,46,165.36c-84.5-130.12-120-89.91-132.42-15.44-9,54,55.51,212.22,97.55,263.75S168.63,668.52,238.89,590.45c8.47-9.42,82.56,61.1,102.53,48.1,17.82-11.6,4.74-82-54.1-129.22-47.54-38.11-44.59-88-86.32-127.59Z"/><path class="cls-50" d="M339.08,512.51S273,418.78,397.73,381.26c83.76-25.18,204.88,46.48,312.84,54.09,157.86,11.14,211.67-63.22,301.27-65.62,114-3.05,181.88,50.85,233.5,46.86,58.31-4.5,118.89-37,188.89-42.3,180-13.5-60.84,186.13-60.84,186.13l-152.62-73.26H668.21L339.08,512.51Z"/><path class="cls-51" d="M549.49,539.72c-2.92-48.2,33-157.34,184.84-159.54,47.95-.7,114.94,34.52,174.9,63.34,88.28,42.43,132.23-60,195.43-63.84,102.74-6.15,104.59,100.55,168.89,75.27,50.87-20,99.78-60.32,155.26-68.92,90.17-14,155.69,28.68,155.69,28.68l.5,246.09s-18.41,68.38-115,64.83c-119.33-4.4-137-147.62-179-155.75s-49.57,130.63-100,119.62c-23.53-5.14-40.73-66.15-52.62-65.3-21.38,1.52-17.07,105.28-82,105.26-76.48,0-74.59-69-129.29-91.12s-65.26,54.37-198.68,51.39c-120.8-2.69-174.26-71.3-179-150Z"/><path class="cls-52" d="M-69.67,24.07c9.8,29.7,21.4,149.3,56.42,153.42,14.6,1.71,6.17,7.51,30.34-12.88,8.51-7.18,25.08-27.62,32.85-60,5.6-23.34-.69-55.59-21-80.64S-54.79-20.5-63.29-44.5C-75.2-78.13-6.29-140-29.38-175c-12.06-20.68-40.8-13.08-45.2-11.63C-108.36-175.54-85-22.35-69.67,24.07Z"/><path class="cls-53" d="M1589.92,401.63S1449.17,235.06,1422.44,249c-60,31.18,73.23,336.9,75.57,303.7l92.22-14-.31-137Z"/><path class="cls-54" d="M73.39,483.46S214.14,316.89,240.87,330.79c60,31.18-15,275.07-75.57,303.7-31.71,15-92.22-14-92.22-14Z"/><path class="cls-55" d="M1565.12,239.94s-96.09,2.42-99.42,36.17c-7.46,75.7,263.62,75,240.09,56.4l-140.67-92.57Z"/><ellipse class="cls-56" cx="1326.57" cy="198.73" rx="18.14" ry="17.8"/><path class="cls-15" d="M1317.73,906.58a8,8,0,1,0,1.34-11.23A8,8,0,0,0,1317.73,906.58Z"/><path class="cls-56" d="M1095.86,673.23c8.72-2.79,20.22,8.76,25.67,25.77s2.79,33.1-5.94,35.89-20.22-8.75-25.67-25.77-2.79-33.1,5.94-35.89Z"/><path class="cls-56" d="M438.19,786c11-3.53,23,3,26.7,14.61s-2.23,23.87-13.25,27.4-23-3-26.7-14.61S427.17,789.52,438.19,786Z"/><circle class="cls-57" cx="494.59" cy="738.74" r="49.48"/><path class="cls-58" d="M1668,646.43c88.9-114.24-56.19-706.59-56.19-706.59l-67,378.76c-2.31,35-28.12,69-49.08,82.16-89.08,56-152.91-55.58-255.14-25.91-64.72,18.77-69.19,114-113.93,120.41C1033.83,508.57,1009,407.2,927,407.5c-114.75.41-96.47,92.92-197.93,82-45.15-4.85-91.75-115.07-170.47-76-46.58,23.09-49,99.67-141.78,86.25-44.74-6.48-86.36-106.41-151-125.27C163.56,344.67,162,434.19,36.9,361.74c-21.4-12.4-38.17-27.38-51.15-44.1l.16-309.52c-.12.27-88.88,195.25-.16,309.52l.6,276.66s34.49-20.67,62.29-18.62c37.78,2.79,80.69,64,175.72,70.75,114.92,8.23,144.91-52.15,201.36-52.13,76.82,0,88.95,60.79,153.61,68.79,84.22,10.42,136.71-70.58,199.53-71.4s114,60.92,176.31,66.48c105.27,9.38,131.71-55,236.73-75.84,85.35-17,154.8,52.11,230.12,50.56,94.35-1.95,118.54-88.5,176.12-88.41,53.94.09,69.83,101.95,69.83,101.95Z"/><ellipse class="cls-56" cx="879.59" cy="635.97" rx="31.57" ry="30.99"/><ellipse class="cls-59" cx="1038.5" cy="551.17" rx="7.59" ry="7.46"/><ellipse class="cls-60" cx="1118.96" cy="562.06" rx="16.78" ry="16.47"/><ellipse class="cls-61" cx="1089.72" cy="631.61" rx="12.13" ry="11.91"/><ellipse class="cls-62" cx="1163.24" cy="665.52" rx="13.74" ry="13.48"/><path class="cls-63" d="M-14.38,243s-62.83,164.25,42,226.41c78.11,46.32,71.94-19.09,137.32-3.86C205.85,475,215.77,508.91,243.7,513c57.93,8.56,124.15-68.68,143.9-82,16.32-11,57.24-30,109.43-8.64,55.12,22.6,68.29,69,71.9,104.06.93,8.93-.8,30.63-2.85,39.57-9.69,42.1-55.44,104.33-139.55,80.48-58.67-16.65-114.37-101.72-177.68-96.09C194,555.32,171.16,633.53,96,633.12c-121.34-.67-124.69-86.59-124.69-86.59L-14.38,243Z"/><ellipse class="cls-64" cx="64.3" cy="165.94" rx="11.93" ry="13.59"/><path class="cls-65" d="M1478.45,438c6.14,2.4,8.9,10,6.17,17s-9.92,10.71-16.06,8.31-8.9-10-6.17-17S1472.32,435.55,1478.45,438Z"/><path class="cls-66" d="M1067.9,317.79a11.5,11.5,0,1,1,11.74,11.69A11.72,11.72,0,0,1,1067.9,317.79Z"/><ellipse class="cls-67" cx="67.24" cy="233.54" rx="5.27" ry="6"/><path class="cls-68" d="M-30.71,324.62S37.84,196.25,75.36,214.93C159.51,256.84-27.43,623.19-30.71,578.57Z"/><path class="cls-69" d="M1113.46,510.09s-68.28-74.72-51.18-102.5c38.36-62.31,183.3,103,206.69,140,64.93,102.58-21,102.37-155.51-37.46Z"/><path class="cls-70" d="M1203.48,490.84s-77.62-133.62-57.62-149.16c44.87-34.86,166.29,144.33,183.6,177.66,62,119.38-42,105.68-126-28.5Z"/><path class="cls-71" d="M739.52,511.83s46.32-52.42,40-63.72c-14.09-25.36-83.18,41.83-93.91,55.28-38.42,48.16,4.92,60,53.87,8.44Z"/><path class="cls-72" d="M874,557s2.66-8.86-4.45-12c-6.87-3-13.92.74-16.65,7.05C846.07,567.88,869.39,575.51,874,557Z"/><path class="cls-73" d="M935.32,435S915.29,401.27,907,401c-18.51-.64,4.81,46.83,10.23,55,19.39,29.25,36.92,13.74,18.05-20.93Z"/><path class="cls-74" d="M960.92,624.69s24.61-16.47,30.7-14.31c13.66,4.85-17.42,29.39-23.79,33.21-22.81,13.68-31-1.5-6.91-18.9Z"/><path class="cls-71" d="M582.67,808s61.76,32.84,71.3,24.11c21.38-19.61-60.05-71.16-75.62-78.46C522.57,727.51,521.14,772.41,582.67,808Z"/><path class="cls-75" d="M786.36,741.14s-21.21,43.7-14.84,49.83c14.3,13.75,48-44.23,52.71-55.21,16.71-39.31-14.71-38.28-37.87,5.38Z"/><ellipse class="cls-76" cx="89.97" cy="495.43" rx="103.15" ry="99.33"/><path class="cls-77" d="M467.92,442c85.95-27.12,137.74,58.83,113,116.61-18.71,43.62-51.38,54.62-87.65,52.39-32.43-2-90.75-17.86-86-94.08,2.3-36.83,32.45-66,60.69-74.92Z"/><path class="cls-78" d="M1584.25,754.81c-9.49-1.76-18.07-7.16-25.66-12.83-24.82-18.52-36-50.62-41.49-79.93a229.26,229.26,0,0,1-3.27-25.71c-.39-6.56-.4-13.14-.65-19.71-.7-18.94.85-36.06-11-33.24-24.74,5.87,2.1,95.18-45.67,94.39-28.51-.47-9-86-44.28-105.39-12.39-6.8-40.23-9.51-54.34-11-10.49-1.09-23.32-4.39-33.18-7-3.38-.89-6.74-1.86-10-3-13.3-4.57-30.35-16.06-28.27-33h0c1.33-29.1,34.32-35.56,57.45-40.63,18.72-4.11,37.82-3.19,56.76-1.27,9.44,1,18.86,2.16,28.3,3.17,4.72.5,9.43,1.05,14.17,1.39,17.5,1.26,38.68,2.61,53.19-9.29,15.07-12.35,16.25-33.55,16.91-51.54.25-6.57.26-13.15.65-19.71a229.26,229.26,0,0,1,3.27-25.71c5.46-29.3,16.67-61.41,41.49-79.93,7.59-5.67,16.17-11.06,25.66-12.83V754.81Z"/><path class="cls-79" d="M505.26,453.53s.47-4.21-1.71-6.75c-3.23-3.78-10.5-3.89-12.66,3.42-2.83,9.63,10.67,16.56,14.37,3.33Z"/><ellipse class="cls-80" cx="290.87" cy="413.31" rx="4.33" ry="4.93"/><ellipse class="cls-80" cx="310.33" cy="399.97" rx="7.39" ry="8.42"/><ellipse class="cls-81" cx="1452.43" cy="64.6" rx="6.83" ry="6.98"/><ellipse class="cls-81" cx="1465.35" cy="43.5" rx="3.49" ry="3.52"/><ellipse class="cls-82" cx="1449.71" cy="194.87" rx="5.88" ry="6.16"/><path class="cls-83" d="M1122,289.72a9.66,9.66,0,1,1,9.86,9.82A9.86,9.86,0,0,1,1122,289.72Z"/><path class="cls-84" d="M1163.32,303.33a4.29,4.29,0,1,1,4.38,4.36A4.37,4.37,0,0,1,1163.32,303.33Z"/><path class="cls-85" d="M974.59,444.54c-11.18-7.84.84-36.18,8.49-48.93,4.54-7.57,23.15-37.46,37.41-27.58,13,9-.7,37.48-8.35,50.23S986.69,453,974.59,444.54Z"/><path class="cls-12" d="M195.39,333.23C187.92,334.79,183.2,316,182,306.45c-.7-5.65-3.18-28.28,6.3-30.33,8.64-1.87,12.71,17.8,13.89,27.32S203.47,331.53,195.39,333.23Z"/><path class="cls-86" d="M117,56.23C106.19,55,103.73,45.92,104.16,41.14c.26-2.83,1.43-14.15,15.41-13.59,12.51.5,13.83,11.76,13.4,16.53s-4.39,13.52-16,12.15Z"/><path class="cls-87" d="M146,86.78a6.35,6.35,0,0,1-5.61-7.08c.12-1.34.67-6.69,6.85-6.47,5.52.19,6.07,5.5,5.87,7.76s-2,6.39-7.11,5.79Z"/><path class="cls-88" d="M355.84,341.92c-4.26-12.43,5.31-21,10.67-23.34,3.19-1.37,15.74-3.4,21.53,9.45,6.26,13.87-5.41,21.89-10.78,24.21s-16.82,3.13-21.42-10.32Z"/><path class="cls-88" d="M926.86,797.91c-6.14-17.93,7.65-30.32,15.39-33.66,4.6-2,22.7-4.9,31,13.62,9,20-7.81,31.58-15.55,34.92S933.49,817.31,926.86,797.91Z"/><path class="cls-89" d="M390.73,282.83c-2.91-8.49,3.21-12.84,6.87-14.42,2.18-.94,11-4.32,14.7,6.45,3.38,9.82-3.29,13.43-6.95,15s-11.48,2.14-14.62-7Z"/><path class="cls-90" d="M849,829.37c-5.67-11.85-18.51-11.29-24-9.18-3.24,1.25-13.62,8.59-8.76,21.82,5.25,14.28,19.21,11.84,24.66,9.73S855.09,842.19,849,829.37Z"/><path class="cls-91" d="M755.05,810c-3.87-8.09-11.28-6.92-15-5.48-2.21.85-10.87,4.61-6,14.89,4.46,9.38,11.76,7.29,15.48,5.85S759.24,818.79,755.05,810Z"/><path class="cls-92" d="M702,450.49c-9.17,2.58-14.23-4.45-15.2-8.64-.56-2.48-2.45-12.51,9.2-15.8,10.62-3,14.59,5.24,15.55,9.42S711.88,447.71,702,450.49Z"/><path class="cls-93" d="M674.36,422.36c-8.14.47-11.13-8.25-11.36-12.63-.13-2.59-.31-13,10-13.61,9.41-.57,11.61,8.52,11.84,12.9s-1.71,12.83-10.51,13.34Z"/><path class="cls-94" d="M1378.05,376c-4.79,9.78-14.12,8.85-18,6.89-2.29-1.17-11.23-6.24-5.17-18.67,5.52-11.33,14.65-9.28,18.51-7.32s9.82,8.53,4.64,19.1Z"/><path class="cls-95" d="M1339.91,325.58c5.22,5.41-1.33,17.1-5.37,22-2.39,2.93-12.18,14.37-18.84,7.53-6.07-6.23,1.3-17.73,5.33-22.66s13.23-12.74,18.88-6.89Z"/><path class="cls-95" d="M910.81,475.89c-6,4.51-1.39,17.09,1.81,22.59,1.9,3.27,9.75,16.12,17.41,10.42,7-5.19,1.53-17.71-1.67-23.21S917.32,471,910.81,475.89Z"/><path class="cls-96" d="M724.93,594.12c6,4.51,1.39,17.09-1.81,22.59-1.9,3.27-9.75,16.12-17.41,10.42-7-5.19-1.53-17.71,1.67-23.21s11-14.68,17.55-9.8Z"/><path class="cls-79" d="M1584.56,132.13s-32.24-2.43-30.75,32.31c1.46,33.78,44.63,29.24,37,8.56l-6.22-40.87Z"/><circle class="cls-97" cx="364.04" cy="871.1" r="40.51"/><circle class="cls-98" cx="1224.03" cy="871.91" r="43.17"/></svg>