<svg id="Layer_1" data-name="Layer 1" xmlns="http://www.w3.org/2000/svg" viewBox="0 0 1573.2 537.42"><defs><style>.cls-1{fill:#ac91f8;}.cls-2{fill:#399f8f;fill-opacity:0.7;}.cls-3{fill:#c12caa;fill-opacity:0.6;}.cls-4{fill:#749ae5;}.cls-39,.cls-4,.cls-40,.cls-43,.cls-44,.cls-45,.cls-53,.cls-54,.cls-55,.cls-56,.cls-57,.cls-59,.cls-60,.cls-61,.cls-62,.cls-63{fill-opacity:0.85;}.cls-5{fill:#8cd686;}.cls-5,.cls-58{fill-opacity:0.45;}.cls-6{fill:#c74688;}.cls-7{fill:#c50ec5;}.cls-8{fill:#4ab083;}.cls-9{fill:#4ab0a7;}.cls-10{fill:#237fc3;}.cls-11{fill:#a3c323;}.cls-12{fill:#ffe714;}.cls-13{fill:#a5acee;}.cls-13,.cls-15,.cls-16,.cls-17,.cls-18,.cls-19,.cls-20,.cls-21,.cls-22,.cls-24,.cls-25,.cls-26,.cls-27,.cls-29,.cls-32,.cls-33,.cls-37{fill-opacity:0.8;}.cls-14{fill:#f891c7;}.cls-15{fill:#eec2a5;}.cls-16{fill:#c6a5ee;}.cls-17{fill:#3f60df;}.cls-18{fill:#5a77e9;}.cls-19{fill:#9f4cc5;}.cls-20{fill:#d94bab;}.cls-21{fill:#3688e6;}.cls-22{fill:#36d6e6;}.cls-23{fill:#ff693a;}.cls-23,.cls-41,.cls-42{fill-opacity:0.65;}.cls-24{fill:#7e3ee1;}.cls-25{fill:#b865ed;}.cls-26{fill:#7dc0f7;}.cls-27{fill:#c3383d;}.cls-28{fill:#35659d;}.cls-29{fill:#4478b4;}.cls-30{fill:#e474c2;}.cls-30,.cls-48{fill-opacity:0.75;}.cls-31{fill:#ec338f;}.cls-31,.cls-38{fill-opacity:0.55;}.cls-32{fill:#36e6d2;}.cls-33{fill:#e67e36;}.cls-34{fill:#16a08a;}.cls-35{fill:#82b6fe;}.cls-36{fill:#eea5a6;}.cls-37{fill:#eeeda5;}.cls-38{fill:#00a53c;}.cls-39{fill:#ff8bb8;}.cls-40{fill:#74e0c9;}.cls-41{fill:#78a2f1;}.cls-42{fill:#86d6a6;}.cls-43{fill:#52c9d8;}.cls-44{fill:#e8a246;}.cls-45{fill:#b846e8;}.cls-46{fill:#8876ea;}.cls-47{fill:#fca099;}.cls-48{fill:#3e8be7;}.cls-49{fill:#c054c2;}.cls-50{fill:#af689c;}.cls-51{fill:#aeea76;}.cls-52{fill:#ea768e;}.cls-53{fill:#b65599;}.cls-54{fill:#eba446;}.cls-55{fill:#dc82c3;}.cls-56{fill:#e89346;}.cls-57{fill:#ff5f9d;}.cls-58{fill:#e4ff5f;}.cls-59{fill:#6c65f0;}.cls-60{fill:#e89d62;}.cls-61{fill:#7974e4;}.cls-62{fill:#cdbc2e;}.cls-63{fill:#de83d8;}.cls-64{fill:#f197f6;}.cls-65{fill:#97caf6;}.cls-66{fill:#7ea2fd;}.cls-67{fill:#ac6ad3;}.cls-68{fill:#e668c3;}.cls-69{fill:#e68468;}</style></defs><title>Experiment1</title><circle class="cls-1" cx="483.88" cy="259.85" r="63.25"/><path class="cls-2" d="M276.1,159.74c71,21.15,95.37,87.28,169,99.56,75.37,12.56,111-60,176.45-56.86,51.94,2.48,68.12,49.14,140.57,65.14,64,14.13,99.3-36.3,160.34-37,100.45-1.1,72.59,48.37,160.74,64.32,66.21,12,94.34-10.64,148.66-30.41,32.83-11.95,58.6,7.46,90.38,3.89,9.81-1.1,18.54-6.44,26-12.64,37.51-31.3,157.19-98.54,155.89-146.23C1498.68-90,997.31-41.48,876.35-35.84,761-30.46,649-30.46,536-2.82,452.73,17.52,382,67.51,297.42,85c-17.78,3.67-39.49,5.39-54.39,16.67-16.14,12.21,21.29,54.57,33.07,58.08Z"/><path class="cls-3" d="M315-1.89c71-21.15,101.62-115,175.26-127.23C565.65-141.68,627.66-42.39,688-58c50.33-13.06,41.67-94.36,93.37-110.16C844-187.37,886-88.48,947.07-87.81c100.46,1.1,113.67-108.52,164.57-118.9,65.93-13.46,104.83,80.26,159.15,100,32.83,12,58.6-7.46,90.39-3.89,9.81,1.1,18.53,6.44,26,12.65,37.52,31.29,57.1,88.64,55.81,136.32-4.59,168.54-247.66,197.48-381.84,184.91-46.75-4.38-74.85-44.53-136-45.55C872,176.88,835.31,211.82,804,213.12c-90.63,3.77-140.86-30.87-229.12-52.45-83.22-20.35-154-70.34-238.53-87.81-17.78-3.68-39.48-5.4-54.39-16.68C265.82,44,303.26,1.62,315-1.89Z"/><path class="cls-4" d="M1341.83-210.4C1128.66-65.77,995-203,831-168,722.78-145,687.55-86.33,615.78-75.28,467-52.36,425.4-188.61,242.86-184.45-66-177.41-22.41,17.83-22.41,17.83l1595.11-4.5,17.53-643.79S1604.23-388.44,1341.83-210.4Z"/><path class="cls-5" d="M-50.34-87.71S-83.95-350.52,96.51-351.07C275.94-351.62,233.29-208.42,342-169.76,560.17-92.19,562.17-161,678-147,940.5-115.13,910.24,53.15,910.24,53.15L-50.34,44.77Z"/><circle class="cls-6" cx="123.42" cy="439.84" r="49.48"/><circle class="cls-7" cx="23.43" cy="458.22" r="8"/><path class="cls-7" d="M211.22,401.89a15.31,15.31,0,1,0,15.31-15.31A15.32,15.32,0,0,0,211.22,401.89Z"/><ellipse class="cls-8" cx="70.99" cy="497.12" rx="16.27" ry="16.51"/><path class="cls-9" d="M258,445.22a24.15,24.15,0,1,0,24.15-24.14A24.17,24.17,0,0,0,258,445.22Z"/><circle class="cls-10" cx="29.25" cy="521.37" r="9.15"/><circle class="cls-10" cx="1541.39" cy="515.94" r="9.15"/><path class="cls-11" d="M317.58,407.86a7.87,7.87,0,1,0,7.87-7.87A7.87,7.87,0,0,0,317.58,407.86Z"/><path class="cls-12" d="M193.43,478.72a5.21,5.21,0,1,0,5.2-5.2A5.2,5.2,0,0,0,193.43,478.72Z"/><path class="cls-13" d="M1550.79,124.62l-145.15,17.94L1423,283.12l145.16-17.95Z"/><circle class="cls-14" cx="638.47" cy="203.71" r="33.79"/><path class="cls-15" d="M1438.91,183l-133.13-44.19L1263,267.68l133.13,44.19L1438.91,183Z"/><path class="cls-16" d="M522.23-94.68,267.13-5.16l86.67,247,255.1-89.51-86.67-247Z"/><path class="cls-17" d="M796,35.15,609.93-16.69,560.12,162.09l186.07,51.85Z"/><path class="cls-18" d="M1237,80.4,1111.28,154,1182,274.75l125.68-73.6Z"/><path class="cls-19" d="M1102,224.07l-51.2-3-2.92,49.19,51.2,3.05,2.92-49.19Z"/><path class="cls-20" d="M968.68,141.33,913.56,149l7.38,53,55.12-7.67-7.38-53Z"/><path class="cls-21" d="M1681.24,376l-68.6-179.34L1439,263.09l68.6,179.34Z"/><path class="cls-22" d="M402.68,287.45,334.07,108.11,160.42,174.54,229,353.88l173.65-66.43Z"/><path class="cls-23" d="M1573.77,344.29l-107.9-122.35L1348.31,325.62,1456.22,448l117.55-103.68Z"/><path class="cls-24" d="M1340.3,189.59l-65.74-21.82-21.13,63.66,65.74,21.82Z"/><path class="cls-21" d="M292.78,363.7,181.22,323.3l-39.11,108,111.55,40.4Z"/><path class="cls-21" d="M55.79,137.24-106,240.7-5.78,397.32,156,293.86,55.79,137.24Z"/><path class="cls-21" d="M1329.49,395.62l83-30.06L1441.62,446l-83,30.06Z"/><path class="cls-8" d="M1371,382.63a16.52,16.52,0,1,0,2.94-23A16.41,16.41,0,0,0,1371,382.63Z"/><path class="cls-9" d="M1459.18,471.06a24.15,24.15,0,1,1-4.07,33.91A24.16,24.16,0,0,1,1459.18,471.06Z"/><path class="cls-10" d="M1370.08,330.27a9.15,9.15,0,1,0,1.55-12.84A9.16,9.16,0,0,0,1370.08,330.27Z"/><path class="cls-25" d="M1119.37,310.07l34.7-12.56,12.16,33.59-34.69,12.56-12.17-33.59Z"/><path class="cls-26" d="M1246,354.42l40,8.76-8.48,38.71-40-8.76Z"/><path class="cls-27" d="M149,504.32l-20.27-8.91L120.14,515,140.41,524Z"/><path class="cls-27" d="M1410.24,464.86l22,2.73-2.64,21.27-22-2.72,2.64-21.28Z"/><path class="cls-28" d="M311,228l-71.92,25.64,24.82,69.63,71.92-25.63L311,228Z"/><path class="cls-29" d="M1300.66,252.76l92.12,32.83L1361,374.8,1268.86,342Z"/><path class="cls-30" d="M1515.19,90.39s85.49-105.69,126.39-287.58c28.63-127.31,41.78-326.25,18.72-345-23.24-18.87-111-23.18-154.08,60.51-25.35,49.21-10.93,146.48-43.76,207.27-43.71,81-185.87,43.17-316.62,133.3C919.21,15.14,1027.24-19,1386.72,23.12l128.47,67.27Z"/><path class="cls-31" d="M-59.75-452.16c-6.35-42.18-9.09-72.51-.94-79.13,23.24-18.87,81.66-10.66,124.76,73,14.86,28.85,29.15,74.1,45,118.85,5.87,4.16,12,9,18.41,14.52,25.72,22.31,38.06,70.8,58.82,111.56C249.87-180.73,359.8-189,462.54-118c77.73,53.71,115,207.92-10.52,281.68-70,41.16-151.66,5.87-223.37,53.51-53.85,35.78-62,130.2-101.13,164.12-57.7,50.05-74.85,24.06-113,47.72C-21.79,451.55-73.72,530.53-78,521.52c-12.8-27.16-51.31-330.8,25.91-425.23q20.69-25.29,41.64-47c-9.14-17.51-16.29-39-21-64.85Q-41.75-27.3-52.06-39.9C-129.28-134.34-90.77-438-78-465.14c1.23-2.6,8.3,3.18,18.22,13Z"/><path class="cls-32" d="M81.74,265,50,243.09,28.76,273.85l31.77,21.91Z"/><path class="cls-32" d="M1483.59,330.53l31.77-21.91,21.22,30.76-31.77,21.91Z"/><path class="cls-33" d="M85.77,345.81,11.26,384l37,72.15L122.78,418Z"/><path class="cls-33" d="M1542.83,403.65l74.52,38.22-37,72.15-74.51-38.22,37-72.15Z"/><path class="cls-34" d="M149.75,107.14,30.33,22.69-51.44,138.33,68,222.77l81.77-115.63Z"/><path class="cls-35" d="M174.15,37.89l-106,100.79,97.6,102.63,106-100.79L174.15,37.89Z"/><path class="cls-36" d="M321,63.11,181.11,105.87l41.41,135.44,139.87-42.76L321,63.11Z"/><path class="cls-37" d="M139.86,256.79,81.74,278.46l21,56.27,58.12-21.67Z"/><path class="cls-37" d="M1425.47,322.32,1483.59,344l-21,56.28-58.12-21.67Z"/><path class="cls-38" d="M1257.27,98.21c-20.92-16.73,3.32-120.5,135.33-264.95,63.9-69.93,172.47-128,191.65-116.76,29.54,17.37-29.71,133.76-110.82,232.79C1393.83,46.47,1293,126.76,1257.27,98.21Z"/><ellipse class="cls-39" cx="286.54" cy="-26.75" rx="73.94" ry="71.93"/><path class="cls-40" d="M744.55-106.77c-46,2.51-77.35,42.85-139.33,29-39.43-8.8-75.68-52.13-135.13-61.82C359.58-157.61,311.9-98.71,317.56-66,320-51.75,335.62-34.65,349.1-17.35c32.33,41.48,205.23,59.63,274.47,63.88s304.23,56.14,301-43.74c-.29-9,64.46-.67,97.15-12.19,11.1-3.91,14.07-22.32,15.52-28,5.11-20-55.86-56.77-134.69-46.45C838.82-75.51,804.93-110.06,744.55-106.77Z"/><path class="cls-41" d="M201-160.85C169.22-191,119.55-182.29,89.2-236,69.89-270.23,77.67-328.39,46-377.22c-84.5-130.13-120-89.92-132.42-15.45-9,54,55.51,212.23,97.55,263.76S168.63,125.93,238.89,47.86C247.36,38.44,321.45,109,341.42,96c17.82-11.6,4.74-82-54.1-129.22-47.54-38.11-44.59-88-86.32-127.6Z"/><path class="cls-42" d="M339.08-30.07S273-123.81,397.73-161.32c83.76-25.19,204.88,46.48,312.84,54.09,157.86,11.13,211.67-63.22,301.27-65.62,114-3.05,181.88,50.85,233.5,46.86,58.31-4.5,118.89-37,188.89-42.3,180-13.5-60.84,186.12-60.84,186.12L1220.77-55.42H668.21L339.08-30.07Z"/><path class="cls-43" d="M549.49-2.86c-2.92-48.21,33-157.34,184.84-159.54,47.95-.7,114.94,34.52,174.9,63.34,88.28,42.42,132.23-60.05,195.43-63.84,102.74-6.16,104.59,100.55,168.89,75.27,50.87-20,99.78-60.32,155.26-68.93,90.17-14,155.69,28.68,155.69,28.68l.5,246.1s-18.41,68.38-115,64.82c-119.33-4.39-137-147.62-179-155.75s-49.57,130.63-100,119.63c-23.53-5.14-40.73-66.16-52.62-65.31-21.38,1.53-17.07,105.28-82,105.27-76.48,0-74.59-69-129.29-91.12s-65.26,54.36-198.68,51.39c-120.8-2.7-174.26-71.31-179-150Z"/><path class="cls-44" d="M1589.92-141s-140.75-166.56-167.48-152.66c-60,31.18,73.23,336.89,75.57,303.69l92.22-14-.31-137Z"/><path class="cls-45" d="M73.39-59.13S214.14-225.69,240.87-211.79c60,31.18-15,275.06-75.57,303.69-31.71,15-92.22-14-92.22-14Z"/><path class="cls-7" d="M1317.73,364a8,8,0,1,0,1.34-11.23A8,8,0,0,0,1317.73,364Z"/><path class="cls-46" d="M1095.86,130.65c8.72-2.8,20.22,8.75,25.67,25.77s2.79,33.1-5.94,35.89-20.22-8.76-25.67-25.77-2.79-33.1,5.94-35.89Z"/><path class="cls-46" d="M438.19,243.41c11-3.53,23,3,26.7,14.61s-2.23,23.87-13.25,27.4-23-3-26.7-14.61S427.17,246.94,438.19,243.41Z"/><circle class="cls-47" cx="494.59" cy="196.16" r="49.48"/><path class="cls-48" d="M1668,103.85c88.9-114.24-56.19-706.59-56.19-706.59l-67,378.76c-2.31,35-28.12,69-49.08,82.16-89.08,56-152.91-55.58-255.14-25.92-64.72,18.78-69.19,114-113.93,120.41C1033.83-34,1009-135.38,927-135.08c-114.75.41-96.47,92.91-197.93,82-45.15-4.85-91.75-115.07-170.47-76.05C512-106,509.59-29.45,416.82-42.87c-44.74-6.47-86.36-106.4-151-125.26C163.56-197.92,162-108.39,36.9-180.84c-21.4-12.4-38.17-27.39-51.15-44.1l.16-309.52c-.12.26-88.88,195.24-.16,309.52l.6,276.65S20.84,31.05,48.64,33.1c37.78,2.78,80.69,64,175.72,70.75,114.92,8.22,144.91-52.15,201.36-52.14,76.82,0,88.95,60.8,153.61,68.8C663.55,130.92,716,49.92,778.86,49.1s114,60.92,176.31,66.48c105.27,9.39,131.71-55,236.73-75.83C1277.25,22.8,1346.7,91.86,1422,90.3c94.35-1.94,118.54-88.49,176.12-88.4C1652.08,2,1668,103.85,1668,103.85Z"/><ellipse class="cls-46" cx="879.59" cy="93.38" rx="31.57" ry="30.99"/><ellipse class="cls-49" cx="1038.5" cy="8.58" rx="7.59" ry="7.46"/><ellipse class="cls-50" cx="1118.96" cy="19.48" rx="16.78" ry="16.47"/><ellipse class="cls-51" cx="1089.72" cy="89.03" rx="12.13" ry="11.91"/><ellipse class="cls-52" cx="1163.24" cy="122.93" rx="13.74" ry="13.48"/><path class="cls-53" d="M-14.38-299.63s-62.83,164.25,42,226.41c78.11,46.31,71.94-19.09,137.32-3.86,40.92,9.53,50.84,43.41,78.77,47.53,57.93,8.55,124.15-68.68,143.9-82,16.32-11,57.24-30,109.43-8.63,55.12,22.6,68.29,69,71.9,104.05.93,8.93-.8,30.64-2.85,39.58C556.39,65.57,510.64,127.81,426.53,104,367.86,87.31,312.16,2.24,248.85,7.87,194,12.74,171.16,91,96,90.53-25.34,89.87-28.69,4-28.69,4l14.31-303.58Z"/><path class="cls-54" d="M-30.71-218S37.84-346.34,75.36-327.65C159.51-285.74-27.43,80.61-30.71,36Z"/><path class="cls-55" d="M1113.46-32.49s-68.28-74.72-51.18-102.5C1100.64-197.3,1245.58-32,1269,5c64.93,102.59-21,102.37-155.51-37.45Z"/><path class="cls-56" d="M1203.48-51.74s-77.62-133.62-57.62-149.16c44.87-34.87,166.29,144.32,183.6,177.66,62,119.38-42,105.68-126-28.5Z"/><path class="cls-57" d="M739.52-30.75s46.32-52.42,40-63.73c-14.09-25.35-83.18,41.84-93.91,55.29-38.42,48.15,4.92,60,53.87,8.44Z"/><path class="cls-58" d="M874,14.37s2.66-8.87-4.45-12c-6.87-3-13.92.73-16.65,7C846.07,25.29,869.39,32.92,874,14.37Z"/><path class="cls-59" d="M960.92,82.11s24.61-16.48,30.7-14.31c13.66,4.85-17.42,29.38-23.79,33.2-22.81,13.69-31-1.49-6.91-18.89Z"/><path class="cls-57" d="M582.67,265.43s61.76,32.85,71.3,24.11c21.38-19.6-60.05-71.15-75.62-78.46C522.57,184.92,521.14,229.83,582.67,265.43Z"/><path class="cls-60" d="M786.36,198.56s-21.21,43.7-14.84,49.82c14.3,13.75,48-44.23,52.71-55.2,16.71-39.31-14.71-38.29-37.87,5.38Z"/><ellipse class="cls-61" cx="89.97" cy="-47.15" rx="103.15" ry="99.33"/><path class="cls-62" d="M467.92-100.59C553.87-127.7,605.66-41.75,580.89,16c-18.71,43.63-51.38,54.62-87.65,52.4-32.43-2-90.75-17.87-86-94.09,2.3-36.82,32.45-66,60.69-74.92Z"/><path class="cls-63" d="M1584.25,212.22c-9.49-1.76-18.07-7.16-25.66-12.82-24.82-18.52-36-50.63-41.49-79.93a229.26,229.26,0,0,1-3.27-25.71c-.39-6.57-.4-13.15-.65-19.72-.7-18.93.85-36.06-11-33.24-24.74,5.88,2.1,95.19-45.67,94.39-28.51-.47-9-86-44.28-105.39-12.39-6.8-40.23-9.5-54.34-11-10.49-1.09-23.32-4.39-33.18-7-3.38-.89-6.74-1.87-10-3-13.3-4.58-30.35-16.06-28.27-33h0c1.33-29.1,34.32-35.56,57.45-40.63,18.72-4.1,37.82-3.18,56.76-1.26,9.44,1,18.86,2.15,28.3,3.16,4.72.51,9.43,1.05,14.17,1.39,17.5,1.27,38.68,2.62,53.19-9.28,15.07-12.36,16.25-33.56,16.91-51.54.25-6.57.26-13.15.65-19.71a228.67,228.67,0,0,1,3.27-25.71c5.46-29.31,16.67-61.42,41.49-79.93,7.59-5.67,16.17-11.07,25.66-12.83V212.22Z"/><path class="cls-64" d="M926.86,255.33c-6.14-17.93,7.65-30.32,15.39-33.66,4.6-2,22.7-4.91,31,13.62,9,20-7.81,31.58-15.55,34.92S933.49,274.72,926.86,255.33Z"/><path class="cls-65" d="M849,286.79c-5.67-11.86-18.51-11.29-24-9.18-3.24,1.25-13.62,8.59-8.76,21.82,5.25,14.28,19.21,11.83,24.66,9.73S855.09,299.61,849,286.79Z"/><path class="cls-66" d="M755.05,267.45c-3.87-8.09-11.28-6.91-15-5.47-2.21.85-10.87,4.6-6,14.89,4.46,9.38,11.76,7.29,15.48,5.85S759.24,276.2,755.05,267.45Z"/><path class="cls-67" d="M724.93,51.54c6,4.51,1.39,17.08-1.81,22.59-1.9,3.27-9.75,16.11-17.41,10.42-7-5.19-1.53-17.72,1.67-23.22s11-14.67,17.55-9.79Z"/><circle class="cls-68" cx="364.04" cy="328.52" r="40.51"/><circle class="cls-69" cx="1224.03" cy="329.33" r="43.17"/></svg>