<?xml version="1.0" encoding="UTF-8" standalone="no"?><!DOCTYPE svg PUBLIC "-//W3C//DTD SVG 1.1//EN" "http://www.w3.org/Graphics/SVG/1.1/DTD/svg11.dtd"><svg width="100%" height="100%" viewBox="0 0 612 127" version="1.1" xmlns="http://www.w3.org/2000/svg" xmlns:xlink="http://www.w3.org/1999/xlink" xml:space="preserve" xmlns:serif="http://www.serif.com/" style="fill-rule:evenodd;clip-rule:evenodd;stroke-linejoin:round;stroke-miterlimit:2;"><rect id="FAQBubbles" x="0" y="0" width="612" height="126.602" style="fill:none;"/><clipPath id="_clip1"><rect x="0" y="0" width="612" height="126.602"/></clipPath><g clip-path="url(#_clip1)"><path d="M614.476,147.614l-622.915,0.308l4.5,-69.481c-2.984,2.864 49.554,13.854 123.427,12.791c48.716,-0.701 89.808,-4.052 131.307,-14.846c46.818,-12.177 108.821,-48.214 156.91,-61.951c128.19,-36.617 244.03,30.347 244.03,30.347l-37.259,102.832Z" style="fill:#f26c72;"/><path d="M-1.769,99.586c5.682,-0.018 79.575,6.58 172.321,5.686c81.347,-0.784 124.621,-6.83 177.807,-15.269c34.352,-5.451 68.297,-19.066 114.882,-42.448c59.357,-29.793 139.78,-50.24 185.22,-10.287c14.12,12.415 -22.002,46.644 -22.002,46.644l-14.459,105.586l-620.439,0l6.67,-89.912l0,0Z" style="fill:#009ed2;"/><path d="M-35.056,63.301c0,0 -11.955,-21.222 96.771,-27.778c88.279,-5.322 135.851,27.881 245.724,55.478c99.15,24.905 272.916,4.247 304.499,-1.126c0,0 -2.612,155.844 -2.612,155.844l-620.706,-0.086l-23.676,-182.332Z" style="fill:#f99c1c;"/><path d="M-42.694,110.646c189.194,-149.066 359.329,-127.088 400.562,-26.088c11.246,27.546 64.701,28.615 100.446,29.009c38.53,0.425 156.743,-4.188 156.743,-4.188l-3.119,167.475l-658.226,0l3.594,-166.208l3.198,25.386l-3.198,-25.386Z" style="fill:#6ccacd;"/></g></svg>