<?xml version="1.0" encoding="UTF-8" standalone="no"?><!DOCTYPE svg PUBLIC "-//W3C//DTD SVG 1.1//EN" "http://www.w3.org/Graphics/SVG/1.1/DTD/svg11.dtd"><svg width="100%" height="100%" viewBox="0 0 612 455" version="1.1" xmlns="http://www.w3.org/2000/svg" xmlns:xlink="http://www.w3.org/1999/xlink" xml:space="preserve" xmlns:serif="http://www.serif.com/" style="fill-rule:evenodd;clip-rule:evenodd;stroke-linejoin:round;stroke-miterlimit:2;"><rect id="Page-Bubbles" serif:id="Page Bubbles" x="0" y="0" width="612" height="454.896" style="fill:none;"/><clipPath id="_clip1"><rect x="0" y="0" width="612" height="454.896"/></clipPath><g clip-path="url(#_clip1)"><path d="M2.815,372.74c5.682,-0.046 148.322,0.57 193.794,-3.917c109.289,-10.786 167.612,-50.488 197.739,-79.84c51.667,-50.338 50.933,-94.296 86.65,-194.021c34.934,-97.54 130.94,-90.251 130.94,-90.251l0,355.229l0.062,-0.001l0,259.202l-612,0l0,-246.401l2.815,0Z" style="fill:#009ed2;"/><path d="M-31.353,142.029c189.194,-212.612 461.703,-187.424 375.374,81.662c-29.272,91.239 63.998,125.913 120.048,129.041c100.608,5.615 147.931,1.539 147.931,1.539l0,264.87l-658.226,0l3.595,-237.061l11.278,-240.051Z" style="fill:#6ccacd;"/><path d="M611.938,619.141l-611.938,0l0,-250.013c-2.983,8.541 60.203,43.122 133.582,34.027c54.35,-6.735 90.424,-61.189 116.647,-106.696c37.08,-64.348 75.498,-184.601 137.116,-237.366c119.827,-102.612 224.593,61.752 224.593,61.752l0,498.296Z" style="fill:#f26c72;"/><path d="M-0.062,197.207c0,0 41.533,-43.613 138.4,-26.709c85.463,14.913 131.137,86.246 239.876,135.531c97.879,44.364 202.141,46.468 233.724,37.527c0,0 -2.612,259.353 -2.612,259.353l-612,0l2.612,-405.702Z" style="fill:#f99c1c;"/></g></svg>