<svg xmlns="http://www.w3.org/2000/svg" viewBox="0 0 612 792"><defs><style>.cls-1{fill:#fff;}.cls-2{fill:#00a9e4;stroke:#0fa8e1;stroke-miterlimit:10;stroke-width:1.88px;opacity:0.4;}</style></defs><title>looseleaf</title><g id="Layer_2" data-name="Layer 2"><rect class="cls-1" width="612" height="792"/></g><g id="Layer_1" data-name="Layer 1"><line class="cls-2" y1="20" x2="612" y2="20"/><line class="cls-2" y1="53" x2="612" y2="53"/><line class="cls-2" y1="86" x2="612" y2="86"/><line class="cls-2" y1="119" x2="612" y2="119"/><line class="cls-2" y1="152" x2="612" y2="152"/><line class="cls-2" y1="185" x2="612" y2="185"/><line class="cls-2" y1="218" x2="612" y2="218"/><line class="cls-2" y1="251" x2="612" y2="251"/><line class="cls-2" y1="284" x2="612" y2="284"/><line class="cls-2" y1="317" x2="612" y2="317"/><line class="cls-2" y1="350" x2="612" y2="350"/><line class="cls-2" y1="383" x2="612" y2="383"/><line class="cls-2" y1="416" x2="612" y2="416"/><line class="cls-2" y1="449" x2="612" y2="449"/><line class="cls-2" y1="515" x2="612" y2="515"/><line class="cls-2" y1="581" x2="612" y2="581"/><line class="cls-2" y1="614" x2="612" y2="614"/><line class="cls-2" y1="713" x2="612" y2="713"/><line class="cls-2" y1="482" x2="612" y2="482"/><line class="cls-2" y1="548" x2="612" y2="548"/><line class="cls-2" y1="647" x2="612" y2="647"/><line class="cls-2" y1="680" x2="612" y2="680"/><line class="cls-2" y1="746" x2="612" y2="746"/><line class="cls-2" y1="779" x2="612" y2="779"/></g></svg>