<?xml version="1.0" encoding="UTF-8" standalone="no"?><!DOCTYPE svg PUBLIC "-//W3C//DTD SVG 1.1//EN" "http://www.w3.org/Graphics/SVG/1.1/DTD/svg11.dtd"><svg width="100%" height="100%" viewBox="0 0 960 659" version="1.1" xmlns="http://www.w3.org/2000/svg" xmlns:xlink="http://www.w3.org/1999/xlink" xml:space="preserve" xmlns:serif="http://www.serif.com/" style="fill-rule:evenodd;clip-rule:evenodd;stroke-linejoin:round;stroke-miterlimit:2;"><rect id="WebsiteBackground--Last-Year-" serif:id="WebsiteBackground (Last Year)" x="0" y="0" width="960" height="658.144" style="fill:none;"/><clipPath id="_clip1"><rect x="0" y="0" width="960" height="658.144"/></clipPath><g clip-path="url(#_clip1)"><g><circle cx="295.216" cy="489.633" r="38.595" style="fill:#ac91f8;"/><path d="M168.43,428.545c43.306,12.906 58.197,53.262 103.126,60.75c45.987,7.665 67.755,-36.593 107.664,-34.69c31.696,1.512 41.569,29.983 85.777,39.744c39.054,8.623 60.59,-22.148 97.835,-22.556c61.293,-0.67 44.293,29.51 98.082,39.245c40.402,7.312 57.563,-6.49 90.708,-18.555c20.032,-7.292 35.756,4.553 55.151,2.376c5.986,-0.673 11.309,-3.93 15.85,-7.718c22.891,-19.095 95.917,-60.123 95.125,-89.222c-3.316,-121.791 -309.242,-92.151 -383.051,-88.712c-70.402,3.281 -138.741,3.284 -207.709,20.146c-50.78,12.415 -93.944,42.918 -145.549,53.581c-10.847,2.241 -24.091,3.293 -33.187,10.175c-9.848,7.45 12.995,33.295 20.178,35.436Z" style="fill:#399f8f;fill-opacity:0.7;"/><path d="M192.188,329.921c43.305,-12.906 62.009,-70.143 106.938,-77.631c45.986,-7.665 83.821,52.918 120.615,43.368c30.715,-7.973 25.428,-57.581 56.977,-67.223c38.248,-11.689 63.889,48.654 101.133,49.061c61.294,0.67 69.36,-66.216 100.415,-72.553c40.229,-8.209 63.968,48.975 97.113,61.04c20.033,7.292 35.757,-4.553 55.151,-2.376c5.986,0.672 11.31,3.93 15.851,7.718c22.89,19.095 34.842,54.086 34.05,83.185c-2.8,102.838 -151.118,120.499 -232.993,112.827c-28.523,-2.672 -45.668,-27.172 -82.975,-27.791c-32.437,-0.539 -54.811,20.781 -73.914,21.575c-55.299,2.299 -85.948,-18.841 -139.804,-32.008c-50.779,-12.415 -93.944,-42.918 -145.549,-53.581c-10.847,-2.241 -24.091,-3.293 -33.187,-10.175c-9.848,-7.451 12.995,-33.295 20.179,-35.436Z" style="fill:#c12caa;fill-opacity:0.6;"/><path d="M956.209,24.581c0,0 -22.466,-97.236 -4.851,-107.76c39.512,-23.606 101.438,141.05 85.89,131.471l-81.039,-23.711Z" style="fill:#40b9be;fill-opacity:0.85;"/><path d="M975.023,211.682c43.96,-82.856 -4.873,-143.939 -54.183,-129.341c-30.974,9.17 -63.089,40.852 -74.359,73.214c-10.022,28.78 -19.448,98.209 51.057,103.384c31.67,2.325 63.04,-20.031 77.485,-47.257Z" style="fill:#2e9ccd;fill-opacity:0.85;"/><path d="M970.187,-149.374c8.713,4.037 8.651,243.433 -151.462,352.066c-130.075,88.253 -211.629,4.494 -311.682,25.842c-66.05,14.093 -87.547,49.864 -131.342,56.61c-90.808,13.986 -116.168,-69.152 -227.553,-66.615c-188.459,4.293 -161.859,123.43 -161.859,123.43l973.311,-2.748l10.587,-488.585Z" style="fill:#749ae5;fill-opacity:0.85;"/><path d="M1023.17,119.927c0,0 -38.494,-10.26 -82.31,7.908c-27.901,11.569 -58.328,40.243 -75.242,68.428c-16.915,28.185 -35.331,96.064 -35.331,96.064l-16.659,-19.785c0,0 9.842,-78.704 69.014,-131.538c83.558,-74.609 135.163,-28.686 135.163,-28.686l5.365,7.609Z" style="fill:#d60202;fill-opacity:0.2;"/><path d="M713.488,276.289c0,0 10.178,-42.646 45.322,-77.02c22.378,-21.888 59.457,-38.133 89.734,-41.35c30.277,-3.218 92.598,10.937 92.598,10.937l-3.746,-8.749c0,0 -70.983,-31.716 -140.779,1.268c-98.561,46.578 -86.587,106.038 -86.587,106.038l3.458,8.876Z" style="fill:#4969c7;fill-opacity:0.17;"/><path d="M562.923,326.185c0,0 -24.479,-23.099 21.799,-42.247c38.66,-15.997 72.016,12.506 141.097,0c31.651,-5.73 83.945,-56.602 117.701,-60.968c66.38,-8.586 77.906,33.313 86.229,53.334l11.202,52.537l-122.336,1.482l-255.692,-4.138Z" style="fill:#9b60c3;fill-opacity:0.85;"/><path d="M73.214,226.758c-6.243,4.099 -11.749,-1.279 -13.5,-4.561c-1.041,-1.949 -4.923,-9.902 2.994,-15.129c7.219,-4.766 12.228,1.26 13.979,4.541c1.751,3.282 3.28,10.717 -3.473,15.149Z" style="fill:#ad7ee0;"/><path d="M88.907,232.914c-1.952,1.281 -3.674,-0.4 -4.221,-1.426c-0.326,-0.61 -1.54,-3.097 0.936,-4.731c2.257,-1.49 3.823,0.394 4.371,1.42c0.547,1.026 1.025,3.351 -1.086,4.737Z" style="fill:#ad7ee0;"/><path d="M-30.755,277.556c0,0 -20.507,-160.362 89.603,-160.699c109.486,-0.335 83.46,87.045 149.807,110.636c133.113,47.331 134.332,5.333 204.99,13.904c160.192,19.431 141.732,122.108 141.732,122.108l-586.132,-5.113l0,-80.836Z" style="fill:#8cd686;fill-opacity:0.45;"/><circle cx="75.267" cy="599.461" r="30.194" style="fill:#c74688;"/><circle cx="14.255" cy="610.673" r="4.88" style="fill:#c50ec5;"/><path d="M128.843,576.303c0,5.156 4.186,9.341 9.341,9.341c5.155,0 9.341,-4.185 9.341,-9.341c0,-5.155 -4.186,-9.341 -9.341,-9.341c-5.155,0 -9.341,4.186 -9.341,9.341Z" style="fill:#c50ec5;"/><ellipse cx="43.277" cy="634.413" rx="9.927" ry="10.077" style="fill:#4ab083;"/><path d="M157.397,602.746c0,8.132 6.603,14.735 14.735,14.735c8.132,0 14.735,-6.603 14.735,-14.735c0,-8.132 -6.603,-14.735 -14.735,-14.735c-8.132,0 -14.735,6.603 -14.735,14.735Z" style="fill:#4ab0a7;"/><circle cx="17.807" cy="649.209" r="5.581" style="fill:#237fc3;"/><circle cx="940.491" cy="645.894" r="5.581" style="fill:#237fc3;"/><path d="M193.746,579.949c0,2.65 2.152,4.802 4.802,4.802c2.651,0 4.802,-2.152 4.802,-4.802c0,-2.65 -2.151,-4.802 -4.802,-4.802c-2.65,0 -4.802,2.152 -4.802,4.802Z" style="fill:#a3c323;"/><path d="M117.99,623.187c0,1.752 1.422,3.174 3.174,3.174c1.752,0 3.174,-1.422 3.174,-3.174c0,-1.752 -1.422,-3.174 -3.174,-3.174c-1.752,0 -3.174,1.422 -3.174,3.174Z" style="fill:#ffe714;"/><path d="M946.23,407.118l-88.571,10.949l10.602,85.764l88.571,-10.949l-10.602,-85.764Z" style="fill:#a5acee;fill-opacity:0.8;"/><circle cx="389.546" cy="455.376" r="20.62" style="fill:#f891c7;"/><path d="M877.963,442.715l-81.233,-26.961l-26.106,78.659l81.233,26.96l26.106,-78.658Z" style="fill:#eec2a5;fill-opacity:0.8;"/><path d="M318.615,273.307l-155.657,54.618l52.887,150.724l155.657,-54.618l-52.887,-150.724Z" style="fill:#c6a5ee;fill-opacity:0.8;"/><path d="M485.671,352.527l-113.54,-31.634l-30.395,109.091l113.541,31.635l30.394,-109.092Z" style="fill:#3f60df;fill-opacity:0.8;"/><path d="M754.736,380.136l-76.687,44.905l43.146,73.683l76.687,-44.906l-43.146,-73.682Z" style="fill:#5a77e9;fill-opacity:0.8;"/><path d="M672.366,467.798l-31.24,-1.857l-1.785,30.016l31.241,1.858l1.784,-30.017Z" style="fill:#9f4cc5;fill-opacity:0.8;"/><path d="M591.034,417.314l-33.631,4.684l4.5,32.314l33.632,-4.685l-4.501,-32.313Z" style="fill:#d94bab;fill-opacity:0.8;"/><path d="M1025.83,560.506l-41.862,-109.428l-105.96,40.534l41.862,109.429l105.96,-40.535Z" style="fill:#3688e6;fill-opacity:0.8;"/><path d="M245.67,506.472l-41.862,-109.429l-105.96,40.535l41.862,109.428l105.96,-40.534Z" style="fill:#36d6e6;fill-opacity:0.8;"/><path d="M960.254,541.16l-65.84,-74.657l-71.732,63.261l65.84,74.656l71.732,-63.26Z" style="fill:#ff693a;fill-opacity:0.65;"/><path d="M817.793,446.761l-40.117,-13.315l-12.892,38.845l40.117,13.315l12.892,-38.845Z" style="fill:#7e3ee1;fill-opacity:0.8;"/><path d="M178.608,552.999l-68.07,-24.647l-23.866,65.912l68.069,24.647l23.867,-65.912Z" style="fill:#3688e6;fill-opacity:0.8;"/><path d="M34.003,414.817l-98.699,63.13l61.129,95.571l98.699,-63.13l-61.129,-95.571Z" style="fill:#3688e6;fill-opacity:0.8;"/><path d="M811.194,572.478l50.657,-18.343l17.762,49.051l-50.657,18.343l-17.762,-49.051Z" style="fill:#3688e6;fill-opacity:0.8;"/><path d="M836.526,564.551c3.384,4.309 9.683,5.018 14.057,1.582c4.374,-3.435 5.177,-9.722 1.793,-14.031c-3.384,-4.309 -9.683,-5.018 -14.057,-1.582c-4.374,3.435 -5.177,9.723 -1.793,14.031Z" style="fill:#4ab083;"/><path d="M890.331,618.512c6.396,-5.024 15.666,-3.91 20.69,2.486c5.023,6.395 3.909,15.666 -2.487,20.689c-6.395,5.023 -15.666,3.909 -20.689,-2.486c-5.023,-6.396 -3.909,-15.666 2.486,-20.689Z" style="fill:#4ab0a7;"/><path d="M835.965,532.604c1.903,2.423 5.414,2.845 7.836,0.942c2.423,-1.902 2.845,-5.414 0.942,-7.836c-1.902,-2.423 -5.414,-2.844 -7.836,-0.942c-2.422,1.903 -2.844,5.414 -0.942,7.836Z" style="fill:#237fc3;"/><path d="M682.986,520.275l21.168,-7.665l7.422,20.497l-21.168,7.665l-7.422,-20.497Z" style="fill:#b865ed;fill-opacity:0.8;"/><path d="M760.228,547.341l24.391,5.343l-5.174,23.618l-24.391,-5.343l5.174,-23.618Z" style="fill:#7dc0f7;fill-opacity:0.8;"/><path d="M90.901,638.807l-12.368,-5.437l-5.265,11.976l12.368,5.438l5.265,-11.977Z" style="fill:#c3383d;fill-opacity:0.8;"/><path d="M860.469,614.728l13.408,1.663l-1.61,12.983l-13.409,-1.663l1.611,-12.983Z" style="fill:#c3383d;fill-opacity:0.8;"/><path d="M189.708,470.218l-43.882,15.642l15.145,42.492l43.883,-15.642l-15.146,-42.492Z" style="fill:#35659d;"/><path d="M793.604,485.304l56.213,20.036l-19.402,54.431l-56.213,-20.036l19.402,-54.431Z" style="fill:#4478b4;fill-opacity:0.8;"/><path d="M924.505,386.231c0,0 52.167,-64.49 77.123,-175.476c17.467,-77.681 25.495,-199.073 11.422,-210.502c-14.178,-11.513 -67.713,-14.146 -94.018,36.924c-15.465,30.025 -6.67,89.378 -26.698,126.472c-26.674,49.403 -113.416,26.341 -193.198,81.336c-138.29,95.327 -72.367,74.494 146.982,100.201l78.387,41.045Z" style="fill:#e474c2;fill-opacity:0.75;"/><path d="M-36.498,55.173c-3.875,-25.738 -5.546,-44.243 -0.573,-48.281c14.178,-11.513 49.824,-6.504 76.128,44.566c9.067,17.603 17.784,45.214 27.481,72.522c3.579,2.535 7.323,5.465 11.233,8.857c15.695,13.616 23.225,43.204 35.893,68.073c38.765,19.886 105.839,14.82 168.53,58.14c47.429,32.774 70.158,126.87 -6.416,171.877c-42.732,25.116 -92.543,3.581 -136.3,32.653c-32.856,21.83 -37.847,79.443 -61.707,100.142c-35.205,30.541 -45.67,14.68 -68.925,29.116c-22.182,13.768 -53.869,61.96 -56.46,56.464c-7.815,-16.573 -31.308,-201.85 15.811,-259.47c8.411,-10.286 16.879,-19.855 25.407,-28.699c-5.581,-10.684 -9.94,-23.779 -12.796,-39.571c-4.218,-4.766 -8.422,-9.712 -12.611,-14.835c-47.119,-57.62 -23.626,-242.897 -15.811,-259.47c0.748,-1.587 5.064,1.936 11.116,7.916Z" style="fill:#ec338f;fill-opacity:0.55;"/><path d="M49.84,492.773l-19.385,-13.369l-12.946,18.771l19.385,13.369l12.946,-18.771Z" style="fill:#36e6d2;fill-opacity:0.8;"/><path d="M905.227,532.761l19.385,-13.369l12.946,18.771l-19.385,13.369l-12.946,-18.771Z" style="fill:#36e6d2;fill-opacity:0.8;"/><path d="M52.299,542.084l-45.47,23.32l22.581,44.028l45.47,-23.32l-22.581,-44.028Z" style="fill:#e67e36;fill-opacity:0.8;"/><path d="M941.374,577.376l45.47,23.32l-22.581,44.029l-45.47,-23.32l22.581,-44.029Z" style="fill:#e67e36;fill-opacity:0.8;"/><path d="M91.336,396.452l-72.867,-51.528l-49.895,70.557l72.867,51.528l49.895,-70.557Z" style="fill:#16a08a;"/><path d="M106.227,354.197l-64.671,61.502l59.553,62.62l64.67,-61.501l-59.552,-62.621Z" style="fill:#82b6fe;"/><path d="M195.82,369.587l-85.346,26.091l25.265,82.641l85.346,-26.091l-25.265,-82.641Z" style="fill:#eea5a6;"/><path d="M85.303,487.763l-35.463,13.223l12.804,34.339l35.463,-13.223l-12.804,-34.339Z" style="fill:#eeeda5;fill-opacity:0.8;"/><path d="M869.764,527.751l35.463,13.223l-12.804,34.339l-35.463,-13.223l12.804,-34.339Z" style="fill:#eeeda5;fill-opacity:0.8;"/><path d="M767.129,391.002c-12.766,-10.207 2.026,-73.525 82.575,-161.667c38.993,-42.669 105.239,-78.128 116.941,-71.247c18.029,10.602 -18.129,81.62 -67.62,142.045c-48.568,59.298 -110.11,108.288 -131.896,90.869Z" style="fill:#00a53c;fill-opacity:0.55;"/><ellipse cx="174.801" cy="314.753" rx="45.117" ry="43.891" style="fill:#ff8bb8;fill-opacity:0.85;"/><path d="M454.271,265.928c-28.062,1.528 -47.194,26.145 -85.016,17.697c-24.058,-5.375 -46.176,-31.809 -82.455,-37.724c-67.428,-10.993 -96.522,24.942 -93.072,44.93c1.497,8.668 11.022,19.105 19.247,29.657c19.73,25.312 125.227,36.388 167.477,38.98c42.251,2.591 185.638,34.258 183.65,-26.692c-0.179,-5.489 39.334,-0.407 59.279,-7.436c6.77,-2.385 8.582,-13.618 9.469,-17.082c3.121,-12.198 -34.083,-34.642 -82.188,-28.346c-38.867,5.087 -59.544,-15.991 -96.391,-13.984Z" style="fill:#74e0c9;fill-opacity:0.85;"/><path d="M122.606,232.931c-19.391,-18.417 -49.696,-13.084 -68.218,-45.881c-11.78,-20.861 -7.035,-56.352 -26.387,-86.15c-51.566,-79.399 -73.242,-54.864 -80.804,-9.423c-5.488,32.973 33.875,129.497 59.527,160.939c25.651,31.442 96.13,155.504 139.002,107.865c5.172,-5.747 50.377,37.288 62.561,29.355c10.874,-7.079 2.897,-50.066 -33.009,-78.848c-29.01,-23.255 -27.209,-53.675 -52.672,-77.857Z" style="fill:#78a2f1;fill-opacity:0.65;"/><path d="M206.862,312.729c0,0 -40.344,-57.198 35.79,-80.089c51.108,-15.367 125.013,28.36 190.885,33.006c96.326,6.793 129.163,-38.578 183.836,-40.04c69.561,-1.861 110.975,31.025 142.476,28.593c35.578,-2.747 72.545,-22.606 115.258,-25.81c109.851,-8.24 -37.126,113.57 -37.126,113.57l-93.125,-44.7l-337.166,0l-200.828,15.47Z" style="fill:#86d6a6;fill-opacity:0.65;"/><path d="M335.249,329.33c-1.781,-29.413 20.143,-96.006 112.786,-97.35c29.261,-0.425 70.14,21.064 106.727,38.649c53.863,25.888 80.682,-36.64 119.247,-38.951c62.69,-3.757 63.82,61.353 103.051,45.928c31.044,-12.207 60.883,-36.809 94.742,-42.058c55.015,-8.528 94.998,17.5 94.998,17.5l0.302,150.165c0,0 -11.234,41.723 -70.138,39.553c-72.814,-2.682 -83.618,-90.075 -109.191,-95.036c-25.573,-4.961 -30.249,79.71 -61.022,72.993c-14.357,-3.134 -24.849,-40.367 -32.11,-39.848c-13.042,0.933 -10.411,64.24 -50.035,64.23c-46.666,-0.011 -45.51,-42.075 -78.888,-55.6c-33.377,-13.525 -39.819,33.174 -121.23,31.358c-73.712,-1.644 -106.333,-43.508 -109.239,-91.533Z" style="fill:#52c9d8;fill-opacity:0.85;"/><path d="M-42.553,14.685c5.979,18.127 13.061,91.102 34.428,93.614c8.91,1.047 3.766,4.586 18.513,-7.855c5.196,-4.384 15.305,-16.854 20.045,-36.589c3.42,-14.241 -0.421,-33.918 -12.825,-49.205c-12.333,-15.201 -46.44,-31.767 -53.3,-45.162c-9.337,-18.231 28.965,-72.001 24.6,-90.177c-3.407,-14.188 -0.731,24.425 -6.876,13.879c-7.355,-12.62 -24.893,-7.985 -27.582,-7.098c-20.611,6.799 -6.345,100.272 2.997,128.593Z" style="fill:#4fbeef;fill-opacity:0.85;"/><path d="M970.109,245.066c0,0 -85.885,-101.633 -102.195,-93.152c-36.586,19.026 44.684,205.567 46.111,185.31l56.272,-8.554l-0.188,-83.604Z" style="fill:#e8a246;fill-opacity:0.85;"/><path d="M44.741,294.998c0,0 85.885,-101.634 102.196,-93.152c36.585,19.025 -9.125,167.839 -46.112,185.309c-19.347,9.139 -56.271,-8.554 -56.271,-8.554l0.187,-83.603Z" style="fill:#b846e8;fill-opacity:0.85;"/><path d="M954.975,146.406c0,0 -58.636,1.477 -60.666,22.07c-4.554,46.191 160.854,45.782 146.501,34.418l-85.835,-56.488Z" style="fill:#f19a7c;fill-opacity:0.75;"/><ellipse cx="809.414" cy="121.26" rx="11.067" ry="10.862" style="fill:#8876ea;"/><path d="M804.017,553.182c1.664,2.118 4.734,2.487 6.852,0.823c2.118,-1.664 2.487,-4.734 0.823,-6.852c-1.663,-2.118 -4.734,-2.487 -6.852,-0.823c-2.118,1.663 -2.487,4.734 -0.823,6.852Z" style="fill:#c50ec5;"/><path d="M668.636,410.795c5.322,-1.704 12.341,5.344 15.665,15.727c3.323,10.384 1.701,20.197 -3.622,21.9c-5.322,1.704 -12.341,-5.343 -15.664,-15.727c-3.324,-10.383 -1.701,-20.197 3.621,-21.9Z" style="fill:#8876ea;"/><path d="M267.339,479.603c6.728,-2.153 14.028,1.841 16.292,8.915c2.264,7.074 -1.36,14.565 -8.087,16.719c-6.728,2.153 -14.029,-1.842 -16.293,-8.915c-2.264,-7.074 1.36,-14.566 8.088,-16.719Z" style="fill:#8876ea;"/><circle cx="301.75" cy="450.77" r="30.194" style="fill:#fca099;"/><path d="M1017.73,394.445c54.247,-69.711 -34.287,-431.154 -34.287,-431.154l-40.89,231.117c-1.414,21.351 -17.161,42.089 -29.952,50.131c-54.353,34.17 -93.304,-33.913 -155.684,-15.813c-39.489,11.457 -42.214,69.557 -69.517,73.473c-56.612,8.12 -71.791,-53.729 -121.796,-53.548c-70.022,0.252 -58.865,56.695 -120.778,50.047c-27.545,-2.958 -55.983,-70.214 -104.018,-46.403c-28.42,14.088 -29.906,60.813 -86.51,52.624c-27.299,-3.95 -52.693,-64.927 -92.17,-76.433c-62.363,-18.176 -63.344,36.453 -139.65,-7.756c-13.059,-7.565 -23.293,-16.71 -31.21,-26.908l0.093,-188.868c-0.074,0.163 -54.234,119.138 -0.093,188.868l0.361,168.808c0,0 21.048,-12.609 38.011,-11.358c23.05,1.7 49.233,39.025 107.223,43.173c70.12,5.016 88.422,-31.823 122.867,-31.815c46.872,0.01 54.275,37.098 93.728,41.977c51.393,6.357 83.422,-43.068 121.754,-43.569c38.333,-0.5 69.556,37.174 107.577,40.565c64.235,5.728 80.369,-33.544 144.449,-46.271c52.081,-10.344 94.456,31.794 140.421,30.847c57.565,-1.186 72.331,-54 107.465,-53.944c32.909,0.052 42.606,62.21 42.606,62.21Z" style="fill:#3e8be7;fill-opacity:0.75;"/><ellipse cx="536.672" cy="388.057" rx="19.264" ry="18.908" style="fill:#8876ea;"/><ellipse cx="633.635" cy="336.313" rx="4.634" ry="4.549" style="fill:#c054c2;"/><ellipse cx="682.734" cy="342.96" rx="10.238" ry="10.049" style="fill:#af689c;"/><ellipse cx="664.893" cy="385.4" rx="7.404" ry="7.267" style="fill:#aeea76;"/><ellipse cx="709.754" cy="406.089" rx="8.383" ry="8.228" style="fill:#ea768e;"/><path d="M-8.815,148.244c0,0 -38.338,100.224 25.624,138.153c47.658,28.261 43.894,-11.647 83.791,-2.355c24.967,5.815 31.019,26.487 48.065,29.004c35.345,5.219 75.755,-41.91 87.801,-50.016c9.961,-6.703 34.931,-18.324 66.773,-5.27c33.637,13.792 41.669,42.105 43.877,63.494c0.562,5.449 -0.489,18.693 -1.745,24.15c-5.911,25.685 -33.827,63.661 -85.149,49.103c-35.801,-10.155 -69.784,-62.064 -108.418,-58.63c-33.455,2.974 -47.402,50.694 -93.263,50.441c-74.044,-0.407 -76.085,-52.831 -76.085,-52.831l8.729,-185.243Z" style="fill:#b65599;fill-opacity:0.85;"/><ellipse cx="39.194" cy="101.256" rx="7.282" ry="8.29" style="fill:#d876ea;"/><path d="M902.091,267.231c3.743,1.463 5.43,6.11 3.765,10.372c-1.665,4.262 -6.056,6.534 -9.799,5.072c-3.744,-1.463 -5.431,-6.11 -3.766,-10.372c1.665,-4.262 6.056,-6.534 9.8,-5.072Z" style="fill:#e4605f;"/><path d="M651.579,193.912c-0.085,-4.018 2.986,-7.346 6.853,-7.428c3.867,-0.082 7.075,3.114 7.16,7.132c0.085,4.017 -2.985,7.346 -6.852,7.428c-3.867,0.082 -7.076,-3.114 -7.161,-7.132Z" style="fill:#686ddf;"/><ellipse cx="40.991" cy="142.502" rx="3.217" ry="3.663" style="fill:#ea8c76;"/><path d="M-18.777,198.076c0,0 41.828,-78.329 64.72,-66.928c51.351,25.573 -62.717,249.116 -64.72,221.887l0,-154.959Z" style="fill:#eba446;fill-opacity:0.85;"/><path d="M679.375,311.25c0,0 -41.659,-45.594 -31.225,-62.544c23.404,-38.02 111.843,62.846 126.117,85.399c39.618,62.597 -12.805,62.464 -94.892,-22.855Z" style="fill:#dc82c3;fill-opacity:0.85;"/><path d="M734.304,299.503c0,0 -47.36,-81.53 -35.155,-91.014c27.377,-21.274 101.468,88.065 112.03,108.406c37.824,72.845 -25.619,64.483 -76.875,-17.392Z" style="fill:#e89346;fill-opacity:0.85;"/><path d="M451.203,312.314c0,0 28.264,-31.986 24.432,-38.885c-8.596,-15.473 -50.752,25.527 -57.3,33.732c-23.447,29.385 3,36.613 32.868,5.153Z" style="fill:#ff5f9d;fill-opacity:0.85;"/><path d="M533.289,339.844c0,0 1.62,-5.41 -2.719,-7.335c-4.193,-1.86 -8.492,0.448 -10.157,4.3c-4.194,9.7 10.038,14.357 12.876,3.035Z" style="fill:#e4ff5f;fill-opacity:0.45;"/><path d="M570.676,265.452c0,0 -12.218,-20.605 -17.252,-20.778c-11.294,-0.391 2.934,28.57 6.238,33.553c11.833,17.846 22.53,8.381 11.014,-12.775Z" style="fill:#5fc5ff;fill-opacity:0.85;"/><path d="M586.301,381.179c0,0 15.018,-10.053 18.733,-8.733c8.334,2.961 -10.632,17.93 -14.518,20.262c-13.917,8.351 -18.886,-0.913 -4.215,-11.529Z" style="fill:#6c65f0;fill-opacity:0.85;"/><path d="M355.498,493.041c0,0 37.687,20.042 43.504,14.71c13.048,-11.963 -36.638,-43.417 -46.142,-47.874c-34.036,-15.964 -34.909,11.439 2.638,33.164Z" style="fill:#ff5f9d;fill-opacity:0.85;"/><path d="M479.788,452.233c0,0 -12.947,26.664 -9.057,30.404c8.727,8.389 29.312,-26.989 32.16,-33.687c10.2,-23.985 -8.976,-23.36 -23.103,3.283Z" style="fill:#e89d62;fill-opacity:0.85;"/><ellipse cx="54.857" cy="302.305" rx="62.942" ry="60.612" style="fill:#7974e4;fill-opacity:0.85;"/><path d="M285.478,269.699c52.444,-16.543 84.048,35.902 68.931,71.154c-11.416,26.621 -31.348,33.328 -53.481,31.972c-19.789,-1.212 -55.376,-10.902 -52.48,-57.411c1.399,-22.469 19.797,-40.28 37.03,-45.715Z" style="fill:#cdbc2e;fill-opacity:0.85;"/><path d="M966.645,460.572c-5.787,-1.075 -11.022,-4.368 -15.658,-7.826c-15.143,-11.299 -21.983,-30.891 -25.315,-48.773c-0.867,-4.655 -1.718,-10.956 -1.996,-15.688c-0.236,-4.004 -0.246,-8.019 -0.394,-12.028c-0.428,-11.556 0.52,-22.003 -6.715,-20.284c-15.093,3.586 1.284,58.08 -27.868,57.597c-17.392,-0.288 -5.469,-52.49 -27.015,-64.308c-7.565,-4.149 -24.547,-5.8 -33.16,-6.694c-6.399,-0.664 -14.227,-2.679 -20.246,-4.257c-2.062,-0.541 -4.112,-1.137 -6.129,-1.83c-8.118,-2.79 -18.523,-9.799 -17.25,-20.121l0,0l0,0l0.001,0c0.813,-17.755 20.946,-21.698 35.055,-24.791c11.424,-2.505 23.083,-1.944 34.635,-0.773c5.762,0.584 11.509,1.315 17.268,1.933c2.88,0.309 5.758,0.64 8.647,0.848c10.678,0.771 23.601,1.596 32.46,-5.668c9.19,-7.537 9.91,-20.474 10.317,-31.447c0.148,-4.009 0.158,-8.023 0.394,-12.028c0.278,-4.731 1.129,-11.033 1.996,-15.688c3.332,-17.881 10.172,-37.473 25.315,-48.772c4.636,-3.459 9.871,-6.751 15.658,-7.826l0,288.424Z" style="fill:#de83d8;fill-opacity:0.85;"/><path d="M308.26,276.739c0,0 0.287,-2.568 -1.039,-4.12c-1.972,-2.309 -6.409,-2.377 -7.725,2.089c-1.73,5.873 6.51,10.099 8.764,2.031l0,0Z" style="fill:#e86546;fill-opacity:0.75;"/><ellipse cx="177.442" cy="252.197" rx="2.641" ry="3.007" style="fill:#e396de;fill-opacity:0.85;"/><ellipse cx="189.318" cy="244.054" rx="4.511" ry="5.135" style="fill:#e396de;fill-opacity:0.85;"/><ellipse cx="886.212" cy="39.417" rx="4.166" ry="4.258" style="fill:#e47475;fill-opacity:0.65;"/><ellipse cx="894.094" cy="26.543" rx="2.13" ry="2.15" style="fill:#e47475;fill-opacity:0.65;"/><ellipse cx="884.549" cy="118.906" rx="3.589" ry="3.759" style="fill:#e02ae8;fill-opacity:0.65;"/><path d="M684.613,176.78c-0.071,-3.377 2.51,-6.175 5.76,-6.244c3.25,-0.068 5.947,2.618 6.019,5.995c0.071,3.377 -2.51,6.175 -5.76,6.244c-3.25,0.068 -5.947,-2.618 -6.019,-5.995Z" style="fill:#cd972e;fill-opacity:0.75;"/><path d="M709.802,185.087c-0.032,-1.5 1.114,-2.742 2.557,-2.772c1.443,-0.031 2.641,1.162 2.672,2.661c0.032,1.5 -1.114,2.742 -2.557,2.772c-1.443,0.031 -2.64,-1.162 -2.672,-2.661Z" style="fill:#2e9ccd;fill-opacity:0.6;"/><path d="M594.642,271.253c-6.826,-4.787 0.512,-22.076 5.179,-29.857c2.773,-4.622 14.127,-22.858 22.827,-16.83c7.933,5.497 -0.425,22.87 -5.093,30.651c-4.668,7.781 -15.53,21.213 -22.913,16.036Z" style="fill:#baa7f0;"/><path d="M119.185,203.33c-4.557,0.955 -7.441,-10.532 -8.16,-16.34c-0.427,-3.449 -1.936,-17.254 3.847,-18.505c5.273,-1.141 7.754,10.862 8.473,16.67c0.719,5.807 0.769,17.142 -4.16,18.175Z" style="fill:#ad7ee0;"/><path d="M71.321,34.308c-6.564,-0.774 -8.069,-6.286 -7.803,-9.202c0.159,-1.732 0.87,-8.638 9.402,-8.295c7.635,0.306 8.44,7.173 8.174,10.089c-0.267,2.917 -2.673,8.246 -9.773,7.408Z" style="fill:#fc45ec;"/><path d="M89.034,52.949c-2.898,-0.343 -3.547,-2.94 -3.421,-4.318c0.074,-0.818 0.408,-4.082 4.177,-3.949c3.372,0.118 3.708,3.357 3.582,4.735c-0.126,1.378 -1.204,3.902 -4.338,3.532Z" style="fill:#7e91e0;"/><path d="M217.088,208.635c-2.596,-7.587 3.238,-12.828 6.513,-14.241c1.945,-0.84 9.603,-2.075 13.138,5.763c3.816,8.463 -3.306,13.362 -6.581,14.775c-3.275,1.413 -10.262,1.909 -13.07,-6.297Z" style="fill:#f197f6;"/><path d="M565.515,486.874c-3.744,-10.942 4.67,-18.501 9.394,-20.539c2.805,-1.21 13.849,-2.992 18.947,8.311c5.504,12.206 -4.767,19.271 -9.491,21.309c-4.723,2.038 -14.8,2.753 -18.85,-9.081Z" style="fill:#f197f6;"/><path d="M238.376,172.579c-1.772,-5.179 1.959,-7.834 4.194,-8.798c1.328,-0.573 6.702,-2.637 8.967,3.933c2.065,5.991 -2.004,8.198 -4.24,9.163c-2.235,0.964 -7.004,1.303 -8.921,-4.298Z" style="fill:#97b2f6;"/><path d="M517.978,506.07c-3.461,-7.234 -11.296,-6.888 -14.623,-5.603c-1.977,0.764 -8.307,5.245 -5.341,13.315c3.204,8.714 11.718,7.222 15.045,5.937c3.328,-1.286 8.662,-5.825 4.919,-13.649Z" style="fill:#97caf6;"/><path d="M460.681,494.272c-2.362,-4.937 -6.884,-4.22 -9.155,-3.342c-1.349,0.521 -6.631,2.811 -3.646,9.087c2.722,5.723 7.173,4.448 9.444,3.571c2.271,-0.878 5.912,-3.976 3.357,-9.316Z" style="fill:#7ea2fd;"/><path d="M428.281,274.885c-5.599,1.57 -8.687,-2.72 -9.273,-5.273c-0.347,-1.516 -1.495,-7.635 5.612,-9.645c6.481,-1.834 8.903,3.199 9.488,5.752c0.586,2.553 0.229,7.468 -5.827,9.166Z" style="fill:#6579ea;"/><path d="M411.444,257.719c-4.964,0.288 -6.792,-5.037 -6.928,-7.706c-0.08,-1.585 -0.189,-7.921 6.115,-8.304c5.747,-0.349 7.089,5.199 7.224,7.867c0.136,2.668 -1.042,7.833 -6.411,8.143Z" style="fill:#7bbcf0;"/><path d="M840.826,229.414c-2.921,5.965 -8.614,5.4 -10.968,4.201c-1.398,-0.711 -6.853,-3.806 -3.159,-11.389c3.37,-6.915 8.94,-5.666 11.295,-4.468c2.354,1.198 5.992,5.205 2.832,11.656Z" style="fill:#c2e777;"/><path d="M817.555,198.666c3.186,3.3 -0.815,10.43 -3.277,13.435c-1.462,1.785 -7.434,8.765 -11.497,4.594c-3.705,-3.804 0.793,-10.821 3.255,-13.826c2.462,-3.005 8.073,-7.772 11.519,-4.203Z" style="fill:#6ad394;"/><path d="M555.726,290.382c-3.67,2.752 -0.852,10.427 1.103,13.784c1.16,1.994 5.949,9.834 10.622,6.36c4.261,-3.167 0.934,-10.809 -1.02,-14.167c-1.954,-3.357 -6.737,-8.954 -10.705,-5.977Z" style="fill:#6ad394;"/><path d="M442.299,362.523c3.67,2.753 0.852,10.427 -1.103,13.785c-1.16,1.994 -5.949,9.833 -10.622,6.36c-4.261,-3.167 -0.935,-10.81 1.02,-14.167c1.954,-3.358 6.737,-8.955 10.705,-5.978Z" style="fill:#ac6ad3;"/><path d="M966.837,80.626c0,0 -19.675,-1.488 -18.762,19.711c0.888,20.615 27.231,17.843 22.554,5.228l-3.792,-24.939Z" style="fill:#e86546;fill-opacity:0.75;"/><circle cx="222.091" cy="531.533" r="24.717" style="fill:#e668c3;"/><circle cx="746.843" cy="532.026" r="26.342" style="fill:#e68468;"/></g><path d="M774.686,120.137c0.441,4.591 0.385,9.201 -0.165,13.828c-0.55,4.627 -1.302,9.004 -2.255,13.129c-0.954,4.125 -2.017,7.855 -3.191,11.191c-1.173,3.336 -2.127,6.009 -2.86,8.017c-0.147,0.359 -0.404,0.933 -0.771,1.722c-0.366,0.789 -0.825,1.561 -1.375,2.314c-0.55,0.753 -1.192,1.363 -1.925,1.829c-0.734,0.466 -1.541,0.556 -2.421,0.269c-0.733,-0.215 -1.228,-0.61 -1.485,-1.184c-0.257,-0.573 -0.385,-1.183 -0.385,-1.829c0,-0.646 0.092,-1.309 0.275,-1.991c0.183,-0.681 0.385,-1.273 0.605,-1.775c1.907,-4.95 3.521,-9.793 4.841,-14.528c1.32,-4.735 2.494,-9.9 3.521,-15.496c1.027,-5.739 1.137,-10.582 0.33,-14.527c-0.587,-3.014 -1.687,-5.327 -3.301,-6.941c-1.613,-1.615 -3.777,-3.031 -6.491,-4.251c-1.1,-0.502 -1.999,-1.309 -2.696,-2.421c-0.697,-1.112 -0.788,-2.242 -0.275,-3.39c0.587,-0.861 1.32,-1.381 2.201,-1.56c0.88,-0.18 1.797,-0.18 2.75,0c0.954,0.179 1.871,0.484 2.751,0.914c0.88,0.431 1.613,0.789 2.2,1.076c1.174,0.718 2.311,1.543 3.411,2.475c1.1,0.933 2.127,2.045 3.081,3.336c0.953,1.292 1.742,2.744 2.365,4.359c0.624,1.614 1.045,3.425 1.265,5.434Zm-168.885,-13.667c-3.227,3.3 -5.941,7.39 -8.142,12.268c-2.2,4.878 -3.631,9.936 -4.291,15.173c-0.587,4.735 -0.403,9.38 0.55,13.936c0.954,4.556 2.971,8.591 6.052,12.106c0.806,1.005 1.595,1.883 2.365,2.637c0.77,0.753 1.394,1.488 1.871,2.206c0.476,0.717 0.751,1.453 0.825,2.206c0.073,0.753 -0.147,1.56 -0.66,2.421c-0.294,0.502 -0.679,0.807 -1.156,0.915c-0.476,0.107 -0.972,0.125 -1.485,0.054c-0.513,-0.072 -1.009,-0.216 -1.485,-0.431c-0.477,-0.215 -0.825,-0.394 -1.046,-0.538c-2.347,-1.578 -4.419,-3.569 -6.216,-5.972c-1.797,-2.404 -3.282,-5.076 -4.456,-8.017c-1.173,-2.942 -2.035,-6.045 -2.585,-9.309c-0.55,-3.264 -0.715,-6.582 -0.495,-9.954c0.22,-3.443 0.733,-6.833 1.54,-10.169c0.807,-3.336 1.87,-6.475 3.191,-9.416c1.32,-2.942 2.879,-5.614 4.676,-8.017c1.797,-2.404 3.759,-4.358 5.886,-5.865c0.44,-0.359 1.137,-0.502 2.09,-0.43c0.954,0.071 1.724,0.322 2.311,0.753c0.66,0.502 1.027,1.13 1.1,1.883c0.073,0.753 -0.073,1.273 -0.44,1.56Zm-312.466,20.447c-0.147,-0.79 -0.293,-1.543 -0.44,-2.26c-0.147,-0.718 -0.513,-1.184 -1.1,-1.399c-1.247,-0.359 -2.567,-0.395 -3.961,-0.108c-1.394,0.287 -2.677,0.735 -3.851,1.345c-1.173,0.61 -2.164,1.292 -2.971,2.045c-0.806,0.753 -1.246,1.417 -1.32,1.991c-0.22,1.076 0.074,2.116 0.88,3.12c0.807,1.005 1.981,2.009 3.521,3.014c2.567,1.506 5.245,3.049 8.032,4.627c2.787,1.578 5.134,3.192 7.041,4.842c1.907,1.65 3.209,3.462 3.906,5.435c0.697,1.973 0.532,4.215 -0.495,6.725c-0.807,1.937 -2.31,3.516 -4.511,4.735c-2.2,1.22 -4.621,2.171 -7.261,2.852c-2.641,0.682 -5.282,1.148 -7.922,1.399c-2.641,0.251 -4.878,0.377 -6.712,0.377c-0.44,0 -0.971,-0.162 -1.595,-0.485c-0.623,-0.322 -1.21,-0.699 -1.76,-1.129c-0.55,-0.431 -1.027,-0.879 -1.431,-1.346c-0.403,-0.466 -0.605,-0.878 -0.605,-1.237c0,-1.291 0.587,-2.188 1.761,-2.69c1.173,-0.503 2.384,-0.754 3.63,-0.754c1.761,0 3.65,-0.089 5.667,-0.269c2.017,-0.179 3.942,-0.466 5.776,-0.861c1.834,-0.394 3.484,-0.914 4.951,-1.56c1.467,-0.646 2.494,-1.471 3.081,-2.475c0.513,-0.861 0.201,-1.883 -0.936,-3.067c-1.137,-1.184 -2.64,-2.421 -4.511,-3.713c-1.87,-1.291 -3.887,-2.546 -6.051,-3.766c-2.164,-1.22 -4.016,-2.332 -5.556,-3.336c-1.54,-1.004 -2.861,-2.206 -3.961,-3.605c-1.1,-1.399 -1.797,-3.139 -2.09,-5.219c-0.074,-1.865 0.33,-3.659 1.21,-5.381c0.88,-1.721 2.035,-3.246 3.466,-4.573c1.43,-1.327 3.062,-2.386 4.896,-3.175c1.833,-0.789 3.667,-1.183 5.501,-1.183c3.154,0.143 5.758,0.986 7.812,2.528c2.053,1.543 3.264,3.821 3.63,6.834c0,1.004 -0.165,1.829 -0.495,2.475c-0.33,0.646 -0.898,1.04 -1.705,1.184c-1.027,0.143 -1.852,0.017 -2.476,-0.377c-0.623,-0.395 -0.972,-0.915 -1.045,-1.56Zm440.863,11.191c2.861,0.789 5.116,2.063 6.766,3.82c1.651,1.758 2.476,3.892 2.476,6.403c0,2.368 -0.844,4.574 -2.531,6.618c-1.687,2.045 -3.704,3.749 -6.051,5.112c-0.587,0.359 -1.504,0.807 -2.751,1.345c-1.246,0.538 -2.585,1.004 -4.015,1.399c-1.431,0.395 -2.879,0.682 -4.346,0.861c-1.467,0.179 -2.751,0.054 -3.851,-0.377c-0.587,-0.215 -1.155,-0.681 -1.705,-1.399c-0.551,-0.717 -0.991,-1.578 -1.321,-2.582c-0.33,-1.005 -0.477,-2.099 -0.44,-3.283c0.037,-1.183 0.385,-2.385 1.045,-3.605c1.467,-2.869 3.081,-5.775 4.841,-8.716c1.761,-2.941 3.594,-5.919 5.502,-8.932c-1.321,-0.861 -2.531,-1.919 -3.631,-3.174c-1.1,-1.256 -1.981,-2.673 -2.641,-4.251c-0.66,-1.578 -1.045,-3.282 -1.155,-5.112c-0.11,-1.829 0.165,-3.748 0.825,-5.757c0.807,-2.295 2.421,-4.268 4.841,-5.918c2.421,-1.65 5.355,-2.475 8.802,-2.475c1.614,0 3.282,0.322 5.006,0.968c1.724,0.646 3.136,1.596 4.236,2.852c1.1,1.255 1.705,2.78 1.815,4.573c0.11,1.794 -0.568,3.874 -2.035,6.242c-1.76,2.582 -3.484,5.147 -5.171,7.694c-1.687,2.547 -3.337,5.111 -4.951,7.694l0.44,0Zm-399.164,-7.855c1.393,-0.072 2.787,0.251 4.181,0.968c1.393,0.717 2.09,1.829 2.09,3.336c-0.147,1.22 -0.825,1.991 -2.035,2.314c-1.21,0.322 -2.182,0.484 -2.916,0.484c-1.467,0 -3.044,0.036 -4.731,0.107c-1.687,0.072 -3.411,0.18 -5.171,0.323c-0.147,2.368 -0.275,4.592 -0.385,6.672c-0.11,2.081 -0.202,3.928 -0.275,5.542c-0.073,1.614 -0.11,2.924 -0.11,3.928c0,1.004 0.037,1.542 0.11,1.614c1.614,-0.287 3.356,-0.771 5.226,-1.453c1.87,-0.681 3.741,-1.434 5.611,-2.259c1.871,-0.825 3.704,-1.686 5.501,-2.583c1.797,-0.897 3.503,-1.74 5.116,-2.529c0.734,-0.359 1.412,-0.466 2.036,-0.323c0.623,0.144 1.008,0.467 1.155,0.969c0.147,0.789 0.037,1.757 -0.33,2.905c-0.367,1.148 -1.027,2.188 -1.98,3.121c-1.101,0.861 -2.549,1.847 -4.346,2.959c-1.797,1.112 -3.723,2.17 -5.777,3.175c-2.053,1.004 -4.125,1.883 -6.216,2.636c-2.09,0.754 -3.942,1.202 -5.556,1.345c-2.42,0.216 -4.254,-0.43 -5.501,-1.937c-1.247,-1.506 -1.944,-3.407 -2.091,-5.703c-0.146,-2.296 -0.165,-4.95 -0.055,-7.963c0.11,-3.013 0.239,-6.206 0.385,-9.578c-1.393,0.144 -2.732,0.269 -4.015,0.377c-1.284,0.108 -2.513,0.233 -3.686,0.377c-0.954,0 -1.999,-0.216 -3.136,-0.646c-1.137,-0.43 -1.705,-1.255 -1.705,-2.475c0,-0.431 0.183,-1.004 0.55,-1.722c0.367,-0.717 1.174,-1.255 2.42,-1.614c3.008,-0.502 6.345,-0.933 10.013,-1.291c0.22,-3.372 0.476,-6.636 0.77,-9.793c0.293,-3.157 0.55,-6.026 0.77,-8.609c0.073,-0.861 0.33,-1.614 0.77,-2.26c0.44,-0.645 0.917,-0.968 1.43,-0.968c1.247,-0.072 2.439,0.233 3.576,0.914c1.137,0.682 1.705,1.453 1.705,2.314c-0.293,2.439 -0.568,5.201 -0.825,8.286c-0.256,3.085 -0.495,6.242 -0.715,9.47c1.467,-0.144 2.879,-0.233 4.236,-0.269c1.357,-0.036 2.659,-0.09 3.906,-0.161Zm70.525,4.842c-0.294,1.148 -0.569,2.816 -0.825,5.004c-0.257,2.188 -0.477,4.484 -0.661,6.887c-0.183,2.403 -0.33,4.717 -0.44,6.941c-0.11,2.224 -0.165,3.946 -0.165,5.165c0,2.081 -1.173,3.121 -3.52,3.121c-0.807,0 -1.559,-0.215 -2.256,-0.646c-0.697,-0.43 -1.045,-1.255 -1.045,-2.475c0,-3.013 0.11,-6.277 0.33,-9.792c0.22,-3.516 0.513,-7.138 0.88,-10.869c-2.567,-4.591 -4.969,-9.111 -7.206,-13.559c-2.238,-4.448 -4.126,-8.537 -5.667,-12.268c-0.293,-0.645 -0.531,-1.345 -0.715,-2.098c-0.183,-0.753 -0.256,-1.453 -0.22,-2.099c0.037,-0.645 0.202,-1.201 0.495,-1.668c0.294,-0.466 0.807,-0.771 1.541,-0.914c0.806,-0.072 1.595,-0.018 2.365,0.161c0.77,0.179 1.449,0.664 2.036,1.453c0.586,1.506 1.32,3.228 2.2,5.165c0.88,1.937 1.797,3.91 2.751,5.919c0.953,2.009 1.907,3.928 2.86,5.757c0.954,1.829 1.797,3.39 2.531,4.681c3.3,-4.304 6.436,-8.716 9.407,-13.236c2.97,-4.52 5.739,-8.824 8.306,-12.913c0.954,-1.435 1.944,-2.224 2.971,-2.368c1.027,-0.143 1.87,0.072 2.531,0.646c0.586,0.43 0.935,1.148 1.045,2.152c0.11,1.004 -0.019,1.901 -0.385,2.69c-1.247,2.153 -2.696,4.502 -4.346,7.049c-1.651,2.547 -3.338,5.111 -5.061,7.694c-1.724,2.583 -3.429,5.13 -5.116,7.641c-1.687,2.51 -3.228,4.77 -4.621,6.779Zm92.969,-15.819c0.294,2.009 0.532,4.143 0.715,6.403c0.184,2.26 0.331,4.538 0.441,6.833c0.11,2.296 0.165,4.52 0.165,6.672c0,2.152 -0.037,4.089 -0.11,5.811c2.347,1.579 3.759,2.978 4.235,4.197c0.477,1.22 0.532,2.296 0.165,3.228c-0.44,1.292 -1.228,1.955 -2.365,1.991c-1.137,0.036 -2.439,-0.34 -3.906,-1.13c-1.027,0.718 -2.2,1.489 -3.521,2.314c-1.32,0.825 -2.713,1.614 -4.18,2.367c-1.467,0.754 -2.934,1.417 -4.401,1.991c-1.467,0.574 -2.824,0.969 -4.071,1.184c-2.347,0.359 -4.456,-0.072 -6.327,-1.291c-1.87,-1.22 -3.135,-3.049 -3.795,-5.489c-0.44,-1.65 -0.551,-3.353 -0.33,-5.111c0.22,-1.758 0.77,-3.444 1.65,-5.058c0.88,-1.614 2.072,-3.067 3.576,-4.358c1.503,-1.291 3.282,-2.296 5.336,-3.013c0.513,-0.215 1.228,-0.395 2.145,-0.538c0.917,-0.144 1.871,-0.198 2.861,-0.162c0.99,0.036 1.999,0.233 3.025,0.592c1.027,0.359 1.981,0.969 2.861,1.83c0,-1.22 -0.018,-2.565 -0.055,-4.036c-0.037,-1.471 -0.092,-2.959 -0.165,-4.466c-0.073,-1.506 -0.165,-2.923 -0.275,-4.25c-0.11,-1.328 -0.238,-2.457 -0.385,-3.39c-0.147,-1.076 -0.569,-1.74 -1.265,-1.991c-0.697,-0.251 -1.559,-0.197 -2.586,0.161c-1.76,0.574 -3.814,1.686 -6.161,3.336c-2.347,1.65 -4.585,3.408 -6.712,5.273c-0.66,0.646 -1.412,0.933 -2.255,0.861c-0.844,-0.071 -1.559,-0.394 -2.146,-0.968c-0.586,-0.574 -0.916,-1.238 -0.99,-1.991c-0.073,-0.753 0.22,-1.56 0.88,-2.421c1.247,-1.292 2.641,-2.619 4.181,-3.982c1.541,-1.363 3.154,-2.601 4.841,-3.713c1.687,-1.111 3.411,-2.026 5.171,-2.744c1.761,-0.717 3.521,-1.112 5.282,-1.183c2.567,-0.072 4.547,0.484 5.941,1.668c1.393,1.183 2.237,2.708 2.53,4.573Zm-237.76,0c0.294,2.009 0.532,4.143 0.715,6.403c0.184,2.26 0.33,4.538 0.44,6.833c0.111,2.296 0.166,4.52 0.166,6.672c0,2.152 -0.037,4.089 -0.111,5.811c2.348,1.579 3.76,2.978 4.236,4.197c0.477,1.22 0.532,2.296 0.165,3.228c-0.44,1.292 -1.228,1.955 -2.365,1.991c-1.137,0.036 -2.439,-0.34 -3.906,-1.13c-1.027,0.718 -2.2,1.489 -3.521,2.314c-1.32,0.825 -2.714,1.614 -4.181,2.367c-1.466,0.754 -2.933,1.417 -4.4,1.991c-1.467,0.574 -2.824,0.969 -4.071,1.184c-2.347,0.359 -4.456,-0.072 -6.327,-1.291c-1.87,-1.22 -3.135,-3.049 -3.795,-5.489c-0.441,-1.65 -0.551,-3.353 -0.331,-5.111c0.221,-1.758 0.771,-3.444 1.651,-5.058c0.88,-1.614 2.072,-3.067 3.576,-4.358c1.503,-1.291 3.282,-2.296 5.336,-3.013c0.513,-0.215 1.228,-0.395 2.145,-0.538c0.917,-0.144 1.871,-0.198 2.861,-0.162c0.99,0.036 1.999,0.233 3.025,0.592c1.027,0.359 1.981,0.969 2.861,1.83c0,-1.22 -0.018,-2.565 -0.055,-4.036c-0.037,-1.471 -0.092,-2.959 -0.165,-4.466c-0.073,-1.506 -0.165,-2.923 -0.275,-4.25c-0.11,-1.328 -0.238,-2.457 -0.385,-3.39c-0.147,-1.076 -0.569,-1.74 -1.265,-1.991c-0.697,-0.251 -1.559,-0.197 -2.586,0.161c-1.76,0.574 -3.814,1.686 -6.161,3.336c-2.347,1.65 -4.585,3.408 -6.712,5.273c-0.66,0.646 -1.412,0.933 -2.255,0.861c-0.844,-0.071 -1.559,-0.394 -2.146,-0.968c-0.586,-0.574 -0.916,-1.238 -0.99,-1.991c-0.073,-0.753 0.22,-1.56 0.88,-2.421c1.247,-1.292 2.641,-2.619 4.181,-3.982c1.541,-1.363 3.154,-2.601 4.841,-3.713c1.687,-1.111 3.411,-2.026 5.171,-2.744c1.761,-0.717 3.521,-1.112 5.281,-1.183c2.568,-0.072 4.548,0.484 5.942,1.668c1.393,1.183 2.237,2.708 2.53,4.573Zm443.504,38.848c-1.321,-1.076 -2.274,-2.386 -2.861,-3.928c-0.587,-1.542 -0.88,-2.565 -0.88,-3.067c-1.027,-11.55 -0.55,-22.849 1.43,-33.897c0.367,-1.507 0.77,-2.87 1.21,-4.09c0.44,-1.219 0.881,-1.829 1.321,-1.829c0.513,0 1.063,0.143 1.65,0.43c0.587,0.287 1.1,0.646 1.54,1.076c0.44,0.431 0.789,0.897 1.046,1.399c0.256,0.503 0.385,0.969 0.385,1.399c-1.467,7.031 -2.256,14.044 -2.366,21.038c-0.11,6.995 0.055,13.972 0.495,20.931c0,0.717 -0.33,1.148 -0.99,1.291c-0.367,0.072 -0.715,0.018 -1.045,-0.161c-0.33,-0.18 -0.642,-0.377 -0.935,-0.592Zm-508.747,-42.291c-0.367,2.511 -0.697,5.29 -0.991,8.339c-0.293,3.049 -0.586,6.134 -0.88,9.255c-0.293,3.121 -0.568,6.152 -0.825,9.093c-0.257,2.942 -0.458,5.524 -0.605,7.748c2.494,-0.43 5.263,-0.932 8.307,-1.506c3.044,-0.574 6.143,-1.166 9.297,-1.776c3.154,-0.61 6.252,-1.148 9.296,-1.614c3.044,-0.466 5.813,-0.807 8.307,-1.022c0.22,0 0.477,0.071 0.77,0.215c0.587,0.287 0.881,0.753 0.881,1.399c0,0.932 -0.184,1.632 -0.551,2.098c-0.366,0.467 -0.806,0.825 -1.32,1.076c-0.513,0.251 -1.045,0.485 -1.595,0.7c-0.55,0.215 -1.045,0.538 -1.485,0.968c-2.274,0.574 -4.768,1.184 -7.482,1.83c-2.714,0.645 -5.501,1.291 -8.362,1.937c-2.86,0.645 -5.721,1.291 -8.582,1.937c-2.86,0.645 -5.537,1.291 -8.031,1.937c-2.274,0.574 -3.998,0.179 -5.171,-1.184c-1.174,-1.363 -1.651,-3.587 -1.431,-6.672c0.367,-5.811 0.807,-11.64 1.321,-17.487c0.513,-5.847 1.136,-11.676 1.87,-17.487c0.147,-1.219 0.568,-2.224 1.265,-3.013c0.697,-0.789 1.559,-1.255 2.586,-1.399c1.687,-0.215 2.695,0.198 3.025,1.238c0.33,1.04 0.459,2.17 0.386,3.39Zm347.893,6.133c-1.321,0.718 -2.696,1.471 -4.126,2.26c-1.43,0.789 -2.861,1.704 -4.291,2.744c-1.43,1.041 -2.787,2.26 -4.071,3.659c-1.283,1.399 -2.439,3.067 -3.466,5.004c-1.467,2.726 -2.457,5.506 -2.97,8.34c-0.514,2.834 -0.844,5.614 -0.99,8.34c0,1.291 -0.312,2.6 -0.936,3.928c-0.623,1.327 -1.485,1.99 -2.585,1.99c-1.394,0 -2.512,-0.699 -3.356,-2.098c-0.843,-1.399 -1.412,-2.744 -1.705,-4.035c-1.247,-5.094 -2.274,-10.134 -3.081,-15.12c-0.807,-4.986 -1.504,-9.954 -2.09,-14.904c0,-1.004 0.311,-1.65 0.935,-1.937c0.623,-0.287 1.338,-0.395 2.145,-0.323c0.88,0.072 1.724,0.287 2.531,0.646c0.807,0.359 1.283,0.932 1.43,1.722c0.294,2.654 0.66,5.434 1.1,8.34c0.44,2.905 0.881,5.398 1.321,7.479c0.293,-2.44 1.1,-4.807 2.42,-7.103c1.32,-2.296 2.952,-4.376 4.896,-6.241c1.944,-1.866 4.144,-3.444 6.602,-4.735c2.457,-1.292 4.969,-2.152 7.536,-2.583c1.1,-0.143 2.017,-0.143 2.751,0c0.733,0.144 1.247,0.395 1.54,0.753c0.293,0.359 0.348,0.933 0.165,1.722c-0.183,0.789 -0.752,1.507 -1.705,2.152Zm180.218,34.436c0.586,0 1.43,-0.143 2.53,-0.43c1.1,-0.287 2.274,-0.682 3.521,-1.184c1.247,-0.502 2.494,-1.094 3.741,-1.776c1.247,-0.681 2.31,-1.452 3.19,-2.313c0.807,-1.005 0.679,-2.224 -0.385,-3.659c-1.063,-1.435 -2.549,-2.977 -4.456,-4.627c-0.146,-0.072 -0.238,-0.144 -0.275,-0.216c-0.036,-0.071 -0.091,-0.143 -0.165,-0.215c-1.467,2.296 -2.824,4.645 -4.071,7.049c-1.246,2.403 -2.457,4.86 -3.63,7.371Zm-264.606,-22.598c-2.861,1.65 -5.941,2.923 -9.242,3.82c-3.301,0.897 -6.858,1.345 -10.672,1.345c0.146,2.511 0.88,4.502 2.2,5.972c1.321,1.471 2.971,2.35 4.951,2.637c1.174,0.143 2.366,0.108 3.576,-0.108c1.21,-0.215 2.347,-0.556 3.411,-1.022c1.063,-0.466 2.035,-0.986 2.915,-1.56c0.881,-0.574 1.651,-1.148 2.311,-1.722c0.66,-0.574 1.357,-0.951 2.09,-1.13c0.734,-0.179 1.284,-0.197 1.651,-0.054c1.027,0.359 1.393,1.435 1.1,3.229c-1.174,2.295 -2.861,4.25 -5.061,5.864c-2.201,1.615 -4.658,2.637 -7.372,3.067c-2.347,0.431 -4.767,0.323 -7.261,-0.323c-2.494,-0.645 -4.731,-1.901 -6.712,-3.766c-1.687,-1.65 -2.97,-3.587 -3.85,-5.811c-0.881,-2.224 -1.431,-4.52 -1.651,-6.887c-0.22,-2.224 -0.018,-4.34 0.605,-6.349c0.624,-2.009 1.596,-3.785 2.916,-5.327c1.32,-1.542 2.971,-2.816 4.951,-3.82c1.98,-1.005 4.291,-1.578 6.931,-1.722c3.154,-0.215 6.015,0.359 8.582,1.722c2.567,1.363 4.364,3.264 5.391,5.703c0.587,1.363 0.752,2.547 0.495,3.551c-0.256,1.005 -1.008,1.902 -2.255,2.691Zm26.736,8.609c-0.954,0.215 -1.962,0.663 -3.026,1.345c-1.064,0.681 -2.017,1.506 -2.861,2.475c-0.843,0.968 -1.467,2.044 -1.87,3.228c-0.403,1.184 -0.422,2.35 -0.055,3.498c0.147,0.43 0.458,0.753 0.935,0.968c0.477,0.215 1.009,0.251 1.595,0.108c1.761,-0.359 3.76,-1.059 5.997,-2.099c2.237,-1.04 4.016,-2.17 5.336,-3.39c0,-0.43 -0.22,-0.986 -0.66,-1.668c-0.44,-0.681 -0.954,-1.363 -1.541,-2.044c-0.586,-0.682 -1.228,-1.274 -1.925,-1.776c-0.697,-0.502 -1.339,-0.717 -1.925,-0.645Zm-237.76,0c-0.954,0.215 -1.963,0.663 -3.026,1.345c-1.064,0.681 -2.017,1.506 -2.861,2.475c-0.843,0.968 -1.467,2.044 -1.87,3.228c-0.403,1.184 -0.422,2.35 -0.055,3.498c0.147,0.43 0.458,0.753 0.935,0.968c0.477,0.215 1.009,0.251 1.595,0.108c1.761,-0.359 3.76,-1.059 5.997,-2.099c2.237,-1.04 4.016,-2.17 5.336,-3.39c0,-0.43 -0.22,-0.986 -0.66,-1.668c-0.44,-0.681 -0.954,-1.363 -1.541,-2.044c-0.586,-0.682 -1.228,-1.274 -1.925,-1.776c-0.697,-0.502 -1.339,-0.717 -1.925,-0.645Zm440.972,-14.958c0,1.65 -0.275,3.676 -0.825,6.08c-0.55,2.403 -1.448,4.824 -2.695,7.263c-1.247,2.44 -2.879,4.735 -4.896,6.888c-2.017,2.152 -4.493,3.802 -7.427,4.95c-1.834,0.789 -3.649,1.201 -5.446,1.237c-1.797,0.036 -3.411,-0.305 -4.841,-1.022c-1.43,-0.717 -2.622,-1.812 -3.576,-3.282c-0.953,-1.471 -1.54,-3.39 -1.76,-5.757c-0.22,-2.798 0.018,-5.614 0.715,-8.448c0.697,-2.834 1.797,-5.488 3.301,-7.963c1.503,-2.475 3.319,-4.681 5.446,-6.618c2.127,-1.937 4.511,-3.48 7.151,-4.628c0.587,-0.287 1.155,-0.269 1.706,0.054c0.55,0.323 0.898,0.987 1.045,1.991c3.814,0.359 6.785,1.345 8.912,2.959c2.127,1.615 3.19,3.713 3.19,6.296Zm-50.06,-9.685c0.953,3.013 0.917,5.846 -0.11,8.501c-0.587,1.435 -1.357,3.013 -2.311,4.735c-0.953,1.722 -2.017,3.461 -3.19,5.219c-1.174,1.758 -2.384,3.444 -3.631,5.058c-1.247,1.614 -2.384,3.067 -3.411,4.358c1.32,-0.144 2.952,-0.341 4.896,-0.592c1.944,-0.251 3.961,-0.52 6.051,-0.807c2.091,-0.287 4.145,-0.556 6.162,-0.807c2.017,-0.251 3.832,-0.448 5.446,-0.592c0.807,-0.072 1.742,0 2.806,0.215c1.063,0.215 1.778,0.395 2.145,0.538c0.44,0.216 0.605,0.592 0.495,1.13c-0.11,0.538 -0.348,1.094 -0.715,1.668c-0.367,0.574 -0.789,1.094 -1.265,1.561c-0.477,0.466 -0.862,0.699 -1.156,0.699c-2.347,0.359 -4.932,0.753 -7.756,1.184c-2.824,0.43 -5.666,0.861 -8.527,1.291c-2.861,0.431 -5.666,0.843 -8.417,1.238c-2.75,0.394 -5.226,0.699 -7.426,0.914c-1.027,0.144 -1.889,-0.251 -2.586,-1.183c-0.697,-0.933 -1.118,-1.901 -1.265,-2.906c0,-0.143 0.037,-0.394 0.11,-0.753c0.073,-0.359 0.513,-0.933 1.32,-1.722c3.081,-3.372 6.106,-7.084 9.077,-11.138c2.971,-4.053 5.299,-8.089 6.987,-12.106c0.22,-0.574 0.293,-1.13 0.22,-1.668c-0.074,-0.538 -0.22,-0.879 -0.441,-1.022c-0.366,-0.287 -0.825,-0.449 -1.375,-0.485c-0.55,-0.035 -1.192,-0.017 -1.925,0.054c-1.027,0.072 -2.091,0.251 -3.191,0.538c-1.1,0.287 -2.182,0.61 -3.246,0.969c-1.063,0.359 -2.035,0.735 -2.915,1.13c-0.88,0.394 -1.651,0.735 -2.311,1.022c-0.88,0.43 -1.613,0.61 -2.2,0.538c-0.587,-0.072 -1.082,-0.233 -1.485,-0.484c-0.404,-0.251 -0.716,-0.52 -0.936,-0.807c-0.22,-0.287 -0.33,-0.502 -0.33,-0.646c-0.073,-0.359 -0.036,-0.825 0.11,-1.399c0.147,-0.574 0.294,-1.04 0.44,-1.399c0.661,-0.789 1.706,-1.614 3.136,-2.475c1.43,-0.861 3.081,-1.596 4.951,-2.206c1.87,-0.61 3.851,-1.058 5.941,-1.345c2.091,-0.287 4.2,-0.287 6.327,0c1.393,0.359 2.549,0.897 3.465,1.614c0.917,0.718 1.596,1.507 2.036,2.368Zm26.075,25.826c0.147,1.005 0.44,1.722 0.881,2.153c0.44,0.43 0.953,0.717 1.54,0.86c0.587,0.072 1.247,0 1.98,-0.215c0.734,-0.215 1.449,-0.484 2.146,-0.807c0.697,-0.323 1.338,-0.681 1.925,-1.076c0.587,-0.395 1.064,-0.771 1.43,-1.13c2.054,-1.865 3.705,-4.143 4.951,-6.833c1.247,-2.691 2.018,-5.65 2.311,-8.878c0,-0.431 -0.293,-0.861 -0.88,-1.292c-0.587,-0.43 -1.339,-0.771 -2.256,-1.022c-0.917,-0.251 -1.925,-0.448 -3.025,-0.592c-1.101,-0.143 -2.164,-0.179 -3.191,-0.107c-1.1,1.219 -2.164,2.547 -3.191,3.981c-1.027,1.435 -1.907,2.96 -2.64,4.574c-0.734,1.614 -1.284,3.3 -1.651,5.058c-0.366,1.757 -0.476,3.533 -0.33,5.326Zm-218.616,-17.11c-0.733,0.144 -1.522,0.395 -2.365,0.753c-0.844,0.359 -1.614,0.807 -2.311,1.346c-0.696,0.538 -1.32,1.147 -1.87,1.829c-0.55,0.681 -0.862,1.453 -0.935,2.314c1.247,0 2.622,-0.108 4.126,-0.323c1.503,-0.215 2.97,-0.485 4.401,-0.807c1.43,-0.323 2.75,-0.7 3.96,-1.13c1.211,-0.431 2.219,-0.897 3.026,-1.399c-0.587,-1.363 -1.669,-2.206 -3.246,-2.529c-1.577,-0.323 -3.172,-0.341 -4.786,-0.054Zm291.232,-6.672c1.54,-2.511 1.467,-4.053 -0.22,-4.627c-1.834,-0.502 -3.686,-0.484 -5.557,0.054c-1.87,0.538 -3.319,1.847 -4.346,3.928c-0.22,0.573 -0.366,1.291 -0.44,2.152c-0.073,0.861 0,1.793 0.22,2.798c0.22,1.004 0.642,1.99 1.266,2.959c0.623,0.968 1.485,1.811 2.585,2.529c1.027,-1.65 2.091,-3.282 3.191,-4.896c1.1,-1.615 2.2,-3.247 3.301,-4.897Z" style="fill-rule:nonzero;"/></g></svg>