<?xml version="1.0" encoding="UTF-8" standalone="no"?><!DOCTYPE svg PUBLIC "-//W3C//DTD SVG 1.1//EN" "http://www.w3.org/Graphics/SVG/1.1/DTD/svg11.dtd"><svg width="100%" height="100%" viewBox="0 0 960 540" version="1.1" xmlns="http://www.w3.org/2000/svg" xmlns:xlink="http://www.w3.org/1999/xlink" xml:space="preserve" xmlns:serif="http://www.serif.com/" style="fill-rule:evenodd;clip-rule:evenodd;stroke-linejoin:round;stroke-miterlimit:2;"><rect id="CoverPhotoLarge" x="0" y="0" width="960" height="540" style="fill:none;"/><clipPath id="_clip1"><rect x="0" y="0" width="960" height="540"/></clipPath><g clip-path="url(#_clip1)"><path d="M1023.17,343.008c0,0 -38.494,-10.259 -82.31,7.909c-27.901,11.569 -58.328,40.243 -75.242,68.428c-16.915,28.184 -35.331,96.064 -35.331,96.064l-16.659,-19.786c0,0 9.842,-78.704 69.014,-131.538c83.558,-74.609 135.163,-28.686 135.163,-28.686l5.365,7.609Z" style="fill:#d60202;fill-opacity:0.2;"/><path d="M185.332,-63.822c0,0 -10.178,42.646 -45.322,77.02c-22.378,21.888 -59.457,38.133 -89.734,41.35c-30.277,3.218 -92.598,-10.937 -92.598,-10.937l3.746,8.749c0,0 70.983,31.716 140.779,-1.268c98.561,-46.578 86.587,-106.038 86.587,-106.038l-3.458,-8.876Z" style="fill:#4969c7;fill-opacity:0.17;"/><path d="M73.214,449.84c-6.243,4.098 -11.749,-1.279 -13.5,-4.561c-1.041,-1.949 -4.923,-9.903 2.994,-15.129c7.219,-4.766 12.228,1.259 13.979,4.541c1.751,3.282 3.28,10.716 -3.473,15.149Z" style="fill:#ad7ee0;"/><path d="M88.907,455.995c-1.952,1.282 -3.674,-0.4 -4.221,-1.426c-0.326,-0.609 -1.54,-3.096 0.936,-4.73c2.257,-1.49 3.823,0.394 4.371,1.42c0.547,1.026 1.025,3.35 -1.086,4.736Z" style="fill:#ad7ee0;"/><path d="M296.487,554.098c0,0 3.394,-38.087 51.436,-50.733c20.526,-5.403 54.278,14.287 75.191,13.801c39.028,-0.907 56.829,-31.906 95.901,-27.748c57.33,6.102 78.245,71.582 69.238,70.306l-291.766,-5.626Z" style="fill:#4fc090;fill-opacity:0.85;"/><path d="M87.264,623.007c0,0 -52.168,-64.49 -77.124,-175.476c-17.467,-77.681 -25.495,-199.073 -11.421,-210.501c14.178,-11.514 36.407,7.223 62.712,58.293c15.465,30.025 12.308,95.173 32.336,132.267c26.674,49.402 60.385,47.237 87.834,92.434c49.188,80.992 -8.134,64.083 -15.95,61.938l-78.387,41.045Z" style="fill:#e47475;fill-opacity:0.55;"/><path d="M696.359,-100.628c0,0 198.617,10.124 265.938,92.448c47.118,57.62 23.625,242.897 15.81,259.47c-2.591,5.496 -53.364,-57.846 -60.075,-57.212c-13.679,1.291 -35.718,-7.792 -65.31,-28.369c-25.933,-18.032 -28.851,-78.312 -61.706,-100.141c-43.758,-29.073 -93.569,-7.537 -136.301,-32.653c-76.574,-45.007 -18.895,-58.5 -11.096,-60.476l52.74,-73.067Z" style="fill:#ec338f;fill-opacity:0.55;"/><path d="M562.923,549.267c0,0 -24.479,-23.099 21.799,-42.248c38.66,-15.996 72.016,12.506 141.097,0c31.651,-5.73 83.945,-56.602 117.701,-60.968c66.38,-8.586 77.906,33.314 86.229,53.335l11.202,52.536l-122.336,1.482l-255.692,-4.137Z" style="fill:#9b60c3;fill-opacity:0.85;"/><path d="M767.89,595.619c0,0 -5.135,-29.34 81.814,-143.202c35.081,-45.94 105.239,-78.128 116.941,-71.247c35.722,21.004 -120.392,214.78 -123.365,198.396l-75.39,16.053Z" style="fill:#00a53c;fill-opacity:0.55;"/><ellipse cx="174.801" cy="537.835" rx="45.117" ry="43.891" style="fill:#ff8bb8;fill-opacity:0.85;"/><path d="M866.253,168.311c8.338,26.838 36.884,39.376 37.932,78.116c0.667,24.641 -19.563,52.548 -16.434,89.172c8.337,97.59 38.176,88.699 65.359,53.809c19.725,-25.317 29.694,-130.767 21.884,-172.37c-7.81,-41.603 -12.137,-188.382 -70.753,-171.562c-7.072,2.029 -26.463,-60.622 -40.572,-60.674c-12.591,-0.047 -25.265,41.514 -7.407,86.622c14.429,36.446 -0.958,61.647 9.991,96.887Z" style="fill:#74e0c9;fill-opacity:0.85;"/><path d="M146.095,50.031c-19.392,18.417 -49.697,13.084 -68.218,45.881c-11.781,20.861 -7.036,56.352 -26.388,86.15c-51.566,79.399 -73.242,54.864 -80.804,9.423c-5.487,-32.973 33.875,-129.497 59.527,-160.939c25.651,-31.442 96.13,-155.504 139.002,-107.865c5.172,5.747 50.377,-37.288 62.562,-29.355c10.873,7.079 2.896,50.066 -33.01,78.848c-29.01,23.254 -27.209,53.674 -52.671,77.857Z" style="fill:#78a2f1;fill-opacity:0.65;"/><path d="M-13.895,173.691c0,0 -63.961,-85.432 0,-123.361c47.658,-28.261 -9.803,-6.676 28.87,-9.627c31.607,-2.411 52.531,-12.981 75.43,-16.133c20.086,-2.765 41.706,1.535 73.207,3.675c35.578,2.417 71.291,21.641 114.004,24.46c109.851,7.251 40.604,-44.985 40.604,-44.985l5.05,-20.927l-337.165,0l0,186.898Z" style="fill:#c486d6;fill-opacity:0.65;"/><path d="M933.482,-41.396c0,0 7.485,32.619 -105.046,77.218c-37.823,14.991 -83.545,-16.251 -149.516,-18.815c-22.741,-0.884 -58.894,13.726 -82.803,18.815c-67.635,14.398 -148.449,-27.854 -179.95,-25.714c-35.578,2.417 -48.933,15.931 -91.646,18.751c-109.851,7.25 -22.158,-95.976 -22.158,-95.976l93.126,39.334l337.165,0l200.828,-13.613Z" style="fill:#86c2d6;fill-opacity:0.65;"/><path d="M886.894,549.201c0,0 -13.618,-18.776 -7.645,-69.606c3.415,-29.064 23.522,-52.968 41.107,-89.555c25.888,-53.863 17.362,-74.628 19.553,-113.2c1.123,-19.778 2.849,-69.868 -12.577,-109.098c-12.206,-31.044 -36.808,-60.884 -42.057,-94.742c-8.528,-55.016 12.035,-88.198 12.035,-88.198l69.335,11.818l-0.494,553.011l-79.257,-0.43Z" style="fill:#527ed8;fill-opacity:0.85;"/><path d="M192.378,23.898c71.806,22.65 109.635,-37.65 89.255,-81.034c-12.802,-27.252 -30.443,-50.838 -57.588,-50.838c-27.145,0 -91.504,1.269 -82.368,69.279c4.104,30.549 27.106,55.15 50.701,62.593Z" style="fill:#2e9ccd;fill-opacity:0.85;"/><path d="M78.058,-58.646c29.822,0 91.099,17.752 91.099,41.976c0,7.482 -13.183,16.04 -30.44,27.964c-12.452,8.605 -37.687,16.955 -58.297,16.955c-20.236,0 -32.934,-10.739 -45.681,-19.67c-8.554,-5.994 -14.254,-10.997 -32.882,-9.269c-14.542,1.349 -19.537,13.41 -31.477,10.583c-14.289,-3.383 -15.381,-23.594 -15.381,-26.754c0,-24.224 93.237,-41.785 123.059,-41.785Z" style="fill:#4fbeef;fill-opacity:0.85;"/><path d="M968.93,172.483c0,0 -3.292,-101.451 -64.853,-139.535c-45.869,-28.376 -75.161,9.26 -112.643,-2.394c-23.727,-7.378 -31.856,-23.373 -48.262,-25.9c-34.018,-5.24 -56.583,15.293 -70.631,15.58c-43.097,0.88 -61.529,-31.347 -61.529,-31.347l353.952,0.561l3.966,183.035Z" style="fill:#749ae5;fill-opacity:0.85;"/><path d="M438.898,-43.081c0,0 -79.224,60.688 -72.339,80.017c15.445,43.358 168.02,-44.204 149.932,-46.714l-77.593,-33.303Z" style="fill:#5a82d2;fill-opacity:0.85;"/><path d="M238.815,-12.932c0,0 97.976,50.279 195.391,41.287c71.579,-6.606 162.175,-33.42 161.91,-40.549c-2.196,-59.21 -350.467,-115.542 -340.907,-95.554l-16.394,94.816Z" style="fill:#e47475;fill-opacity:0.75;"/><path d="M-8.48,109.105c0,0 48.316,58.266 64.992,49.961c37.405,-18.628 -63.533,-182.671 -64.992,-162.837l0,112.876Z" style="fill:#f19a7c;fill-opacity:0.85;"/><path d="M954.975,369.487c0,0 -58.636,1.477 -60.666,22.07c-4.554,46.192 160.854,45.783 146.501,34.419l-85.835,-56.489Z" style="fill:#f19a7c;fill-opacity:0.75;"/><ellipse cx="41.505" cy="29.643" rx="19.276" ry="21.945" style="fill:#8876ea;"/><path d="M62.125,-0.939c34.955,-32.083 94.659,0 94.659,0l-94.659,0c-10.701,0.83 -21.1,10.143 -25.134,17.71c-17.143,32.156 16.968,55.227 7.877,92.138c-5.754,23.366 -20.336,44.794 -22.307,60.951c-4.087,33.5 9.772,43.293 12.576,61.499c4.748,30.817 -11.579,45.053 -11.579,61.448c0,16.395 12.314,26.121 10.408,57.768c-0.811,13.459 -13.43,21.501 -9.343,55.001c1.971,16.157 14.427,31.959 20.182,55.325c9.09,36.911 -18.29,37.476 3.844,82.646c3.788,7.73 8.368,13.789 13.476,18.478l94.659,0c-0.081,0.044 -59.727,32.06 -94.659,0l-70.605,0l0,-281.56l0,-281.404l70.605,0Z" style="fill:#55b4b6;fill-opacity:0.85;"/><path d="M997.013,552.335c54.231,-38.943 -13.645,-194.461 -13.645,-194.461l-40.839,129.147c-1.409,11.932 -17.153,23.517 -29.941,28.008c-54.346,19.081 -93.312,-18.977 -155.688,-8.88c-39.486,6.393 -75.704,22.629 -103.006,24.81c-56.611,4.523 -73.15,-10.94 -103.913,-14.087c-52.071,-5.325 -75.633,15.798 -103.337,15.781c-27.703,-0.017 -44.635,-16.692 -98.113,-14.599c-22.743,0.89 -36.339,14.953 -92.945,10.361c-27.3,-2.215 -53.996,-16.12 -93.475,-22.561c-62.367,-10.175 -63.336,20.355 -139.652,-4.372c-13.06,-4.232 -23.296,-9.345 -31.216,-15.046l0.052,-105.548c-0.074,0.09 -54.208,66.565 -0.052,105.548l-0.029,57.939l475.775,0.293l475.511,0.293l54.513,7.374Z" style="fill:#e7b13e;fill-opacity:0.85;"/><path d="M-8.815,371.326c0,0 -38.338,100.223 25.624,138.152c47.658,28.261 43.894,-11.647 83.791,-2.354c24.967,5.814 40.588,26.174 57.634,28.691c35.345,5.218 50.447,-42.728 78.232,-49.704c72.583,-18.222 86.833,51.186 86.833,51.186l5.051,20.927l-337.165,0l0,-186.898Z" style="fill:#b65599;fill-opacity:0.85;"/><ellipse cx="39.194" cy="324.337" rx="7.282" ry="8.29" style="fill:#d876ea;"/><ellipse cx="867.934" cy="86.303" rx="7.282" ry="8.29" style="fill:#ea76b1;"/><ellipse cx="85.977" cy="20.943" rx="7.282" ry="8.29" style="fill:#686ddf;"/><ellipse cx="40.991" cy="365.584" rx="3.217" ry="3.663" style="fill:#ea8c76;"/><path d="M-22.445,448.95c0,0 41.827,-78.329 64.72,-66.928c51.351,25.573 -62.717,249.116 -64.72,221.887l0,-154.959Z" style="fill:#e8a246;fill-opacity:0.85;"/><path d="M976.072,84.765c0,0 -31.118,58.273 -48.149,49.792c-38.202,-19.026 46.659,-185.33 48.149,-165.073l0,115.281Z" style="fill:#e8a246;fill-opacity:0.85;"/><path d="M739.743,559.254c0,0 -44.7,-45.992 -33.738,-62.819c24.591,-37.745 152.976,89.209 134.893,86.647l-101.155,-23.828Z" style="fill:#e87846;fill-opacity:0.85;"/><path d="M785.574,573.953c0,0 -43.751,-95.43 -29.442,-108.771c32.096,-29.927 128.873,128.079 111.895,120.682l-82.453,-11.911Z" style="fill:#e8e046;fill-opacity:0.85;"/><ellipse cx="41.536" cy="529.505" rx="49.621" ry="56.494" style="fill:#7974e4;fill-opacity:0.85;"/><ellipse cx="924.198" cy="7.698" rx="45.117" ry="43.891" style="fill:#4fbeef;fill-opacity:0.85;"/><path d="M285.478,492.78c52.444,-16.542 83.816,39.469 68.931,71.155c-9.35,19.904 -25.976,25.159 -45.802,25.159c-19.826,0 -66.831,-0.927 -60.159,-50.598c2.998,-22.312 19.797,-40.28 37.03,-45.716Z" style="fill:#2e9ccd;fill-opacity:0.85;"/><path d="M966.645,395.229c0,0 -28.639,4.478 -39.346,49.176c-8.47,35.361 1.112,50.975 -13.241,65.53c-17.919,18.17 -68.913,-5.597 -100.185,6.599c-14.989,5.846 -28.974,22.907 -28.974,22.907l181.746,0l0,-144.212" style="fill:#de83d8;fill-opacity:0.85;"/><path d="M308.26,499.821c0,0 0.287,-2.569 -1.039,-4.121c-1.972,-2.309 -6.409,-2.377 -7.725,2.089c-1.73,5.873 6.51,10.1 8.764,2.032l0,0Z" style="fill:#e86546;fill-opacity:0.75;"/><path d="M295.721,516.754c0,0 0.145,-1.301 -0.526,-2.087c-1,-1.17 -3.072,-1.127 -3.914,1.058c-1.039,2.696 3.298,5.117 4.44,1.029l0,0Z" style="fill:#e86546;fill-opacity:0.75;"/><ellipse cx="177.442" cy="475.278" rx="2.641" ry="3.007" style="fill:#e396de;fill-opacity:0.85;"/><ellipse cx="189.318" cy="467.136" rx="4.511" ry="5.135" style="fill:#e396de;fill-opacity:0.85;"/><ellipse cx="881.9" cy="262.474" rx="4.166" ry="4.743" style="fill:#e47475;fill-opacity:0.65;"/><ellipse cx="889.781" cy="249.115" rx="2.13" ry="2.424" style="fill:#e47475;fill-opacity:0.65;"/><ellipse cx="884.549" cy="341.987" rx="3.589" ry="4.086" style="fill:#e02ae8;fill-opacity:0.65;"/><ellipse cx="101.29" cy="48.872" rx="6.121" ry="6.968" style="fill:#2e9ccd;fill-opacity:0.75;"/><ellipse cx="86.697" cy="58.18" rx="2.717" ry="3.094" style="fill:#2e9ccd;fill-opacity:0.6;"/><path d="M749.395,42.752c2.11,8.066 -14.668,16.506 -23.26,19.422c-5.104,1.732 -25.558,8.297 -28.295,-1.927c-2.495,-9.323 15.116,-17.168 23.708,-20.084c8.593,-2.916 25.565,-6.135 27.847,2.589Z" style="fill:#baa7f0;"/><path d="M131.208,451.661c-3.911,2.527 -10.725,-7.16 -13.48,-12.323c-1.637,-3.067 -7.998,-15.411 -3.049,-18.654c4.512,-2.957 11.135,7.357 13.89,12.52c2.755,5.163 6.869,15.725 2.639,18.457Z" style="fill:#ad7ee0;"/><path d="M54.221,197.922c-6.564,-0.778 -8.009,-6.95 -7.709,-10.231c0.178,-1.949 0.969,-9.719 9.508,-9.454c7.641,0.237 8.37,7.943 8.07,11.223c-0.3,3.281 -2.769,9.304 -9.869,8.462Z" style="fill:#fc45ec;"/><path d="M72.096,214.795c-2.898,-0.343 -3.536,-3.068 -3.404,-4.517c0.079,-0.86 0.428,-4.29 4.198,-4.173c3.373,0.104 3.695,3.506 3.562,4.955c-0.132,1.448 -1.222,4.107 -4.356,3.735Z" style="fill:#7e91e0;"/><path d="M169.4,68.636c2.686,7.85 -3.35,13.272 -6.738,14.734c-2.013,0.869 -10.159,3.997 -13.592,-5.962c-3.131,-9.081 3.419,-13.824 6.808,-15.286c3.388,-1.462 10.617,-1.975 13.522,6.514Z" style="fill:#f197f6;"/><path d="M147.803,104.408c1.772,5.178 -2.21,8.755 -4.446,9.72c-1.327,0.573 -6.701,2.637 -8.966,-3.934c-2.066,-5.99 2.256,-9.12 4.491,-10.084c2.235,-0.964 7.005,-1.303 8.921,4.298Z" style="fill:#97b2f6;"/><path d="M456.812,523.981c-7.799,2.184 -12.037,-4.977 -12.924,-8.843c-0.526,-2.295 -2.293,-11.55 7.606,-14.348c9.026,-2.551 12.548,5.108 13.435,8.973c0.886,3.865 0.318,11.857 -8.117,14.218Z" style="fill:#5a9aee;"/><path d="M430.277,496.913c-4.964,0.287 -6.792,-5.038 -6.928,-7.706c-0.08,-1.585 -0.189,-7.921 6.114,-8.304c5.748,-0.349 7.089,5.198 7.225,7.867c0.135,2.668 -1.042,7.832 -6.411,8.143Z" style="fill:#7bbcf0;"/><path d="M797.108,65.084c-0.55,6.619 -6.058,8.163 -8.687,7.904c-1.562,-0.154 -7.769,-1.051 -7.087,-9.459c0.622,-7.667 6.265,-8.531 8.894,-8.271c2.629,0.259 7.476,2.667 6.88,9.826Z" style="fill:#9477e7;"/><path d="M817.555,421.748c3.186,3.3 -0.815,10.43 -3.277,13.434c-1.462,1.785 -7.434,8.765 -11.497,4.594c-3.705,-3.803 0.793,-10.821 3.255,-13.826c2.462,-3.004 8.073,-7.771 11.519,-4.202Z" style="fill:#6ad394;"/><path d="M-8.085,-3.744l17.858,0c0,0 -14.044,10.5 -13.005,73.417c0.445,26.993 12.061,58.688 12.146,88.569c0.09,32.216 -9.513,69.624 -11.602,104.73c-2.207,37.062 -3.881,68.748 -0.941,97.286c4.819,46.767 12.558,49.496 14.637,74.363c3.381,40.439 -19.488,49.946 -19.488,49.946" style="fill:#e28082;"/><ellipse cx="14.948" cy="139.132" rx="7.282" ry="8.29" style="fill:#ea76b1;"/><path d="M966.837,303.707c0,0 -19.675,-1.488 -18.762,19.712c0.888,20.614 27.231,17.843 22.554,5.227l-3.792,-24.939Z" style="fill:#e86546;fill-opacity:0.75;"/></g></svg>