<?xml version="1.0" encoding="UTF-8" standalone="no"?><!DOCTYPE svg PUBLIC "-//W3C//DTD SVG 1.1//EN" "http://www.w3.org/Graphics/SVG/1.1/DTD/svg11.dtd"><svg width="100%" height="100%" viewBox="0 0 960 378" version="1.1" xmlns="http://www.w3.org/2000/svg" xmlns:xlink="http://www.w3.org/1999/xlink" xml:space="preserve" xmlns:serif="http://www.serif.com/" style="fill-rule:evenodd;clip-rule:evenodd;stroke-linejoin:round;stroke-miterlimit:2;"><rect id="SlideTemplate2--current-" serif:id="SlideTemplate2 (current)" x="0" y="0" width="960" height="377.667" style="fill:none;"/><clipPath id="_clip1"><rect x="0" y="0" width="960" height="377.667"/></clipPath><g clip-path="url(#_clip1)"><path d="M956.209,117.49c0,0 -22.466,-97.236 -4.851,-107.76c39.512,-23.606 101.438,141.05 85.89,131.471l-81.039,-23.711Z" style="fill:#40b9be;fill-opacity:0.85;"/><path d="M975.023,304.591c43.96,-82.856 -4.873,-143.939 -54.183,-129.341c-30.974,9.17 -63.089,40.852 -74.359,73.214c-10.022,28.78 -19.448,98.209 51.057,103.384c31.67,2.325 63.04,-20.031 77.485,-47.257Z" style="fill:#2e9ccd;fill-opacity:0.85;"/><path d="M970.187,-56.465c8.713,4.037 8.651,243.433 -151.462,352.066c-130.075,88.253 -211.629,4.494 -311.682,25.842c-66.05,14.093 -87.547,49.864 -131.342,56.61c-90.808,13.986 -116.168,-69.152 -227.553,-66.615c-188.459,4.292 -161.859,123.43 -161.859,123.43l973.311,-2.748l10.587,-488.585Z" style="fill:#749ae5;fill-opacity:0.85;"/><path d="M1023.17,212.836c0,0 -38.494,-10.26 -82.31,7.908c-27.901,11.569 -58.328,40.243 -75.242,68.428c-16.915,28.185 -35.331,96.064 -35.331,96.064l-16.659,-19.785c0,0 9.842,-78.704 69.014,-131.539c83.558,-74.608 135.163,-28.685 135.163,-28.685l5.365,7.609Z" style="fill:#d60202;fill-opacity:0.2;"/><path d="M713.488,369.198c0,0 10.178,-42.646 45.322,-77.02c22.378,-21.888 59.457,-38.133 89.734,-41.35c30.277,-3.218 92.598,10.937 92.598,10.937l-3.746,-8.749c0,0 -70.983,-31.716 -140.779,1.268c-98.561,46.578 -86.587,106.038 -86.587,106.038l3.458,8.876Z" style="fill:#4969c7;fill-opacity:0.17;"/><path d="M562.923,419.094c0,0 -24.479,-23.099 21.799,-42.247c38.66,-15.997 72.016,12.506 141.097,0c31.651,-5.73 83.945,-56.602 117.701,-60.968c66.38,-8.586 77.906,33.313 86.229,53.334l11.202,52.537l-122.336,1.482l-255.692,-4.138Z" style="fill:#9b60c3;fill-opacity:0.85;"/><path d="M73.214,319.667c-6.243,4.099 -11.749,-1.279 -13.5,-4.561c-1.041,-1.949 -4.923,-9.902 2.994,-15.129c7.219,-4.766 12.228,1.26 13.979,4.541c1.751,3.282 3.28,10.717 -3.473,15.149Z" style="fill:#ad7ee0;"/><path d="M88.907,325.823c-1.952,1.281 -3.674,-0.4 -4.221,-1.426c-0.326,-0.61 -1.54,-3.097 0.936,-4.731c2.257,-1.49 3.823,0.394 4.371,1.42c0.547,1.026 1.025,3.351 -1.086,4.737Z" style="fill:#ad7ee0;"/><path d="M-30.755,370.465c0,0 -20.507,-160.362 89.603,-160.699c109.486,-0.335 83.46,87.045 149.807,110.636c133.113,47.331 134.332,5.333 204.99,13.904c160.192,19.431 141.732,122.108 141.732,122.108l-586.132,-5.113l0,-80.836Z" style="fill:#8cd686;fill-opacity:0.45;"/><path d="M56.825,493.205c0,0 -52.167,-64.49 -77.123,-175.476c-17.467,-77.681 -30.847,-206.499 -16.773,-217.928c14.178,-11.513 49.824,-6.504 76.128,44.566c15.465,30.024 29.911,89.162 49.939,126.256c26.674,49.403 113.416,26.341 193.198,81.336c138.29,95.327 72.367,74.494 -146.981,100.201l-78.388,41.045Z" style="fill:#e47475;fill-opacity:0.65;"/><path d="M924.505,479.14c0,0 52.167,-64.49 77.123,-175.477c17.467,-77.68 25.495,-199.072 11.422,-210.501c-14.178,-11.514 -67.713,-14.146 -94.018,36.924c-15.465,30.025 -6.67,89.378 -26.698,126.472c-26.674,49.402 -113.416,26.341 -193.198,81.336c-138.29,95.327 -72.367,74.494 146.982,100.2l78.387,41.046Z" style="fill:#e474c2;fill-opacity:0.75;"/><path d="M234.135,492.083c0,0 -198.618,-10.123 -265.938,-92.447c-47.119,-57.62 -23.626,-242.897 -15.811,-259.47c2.591,-5.496 47.99,50.31 60.075,57.212c8.345,4.766 30.105,-2.173 65.31,28.368c23.86,20.699 28.851,78.312 61.707,100.142c43.757,29.072 93.568,7.536 136.3,32.652c76.574,45.007 18.895,58.501 11.096,60.477l-52.739,73.066Z" style="fill:#ec338f;fill-opacity:0.55;"/><path d="M767.89,465.446c0,0 -5.135,-29.34 81.814,-143.202c35.081,-45.94 105.239,-78.128 116.941,-71.247c35.722,21.005 -120.392,214.78 -123.365,198.396l-75.39,16.053Z" style="fill:#00a53c;fill-opacity:0.55;"/><ellipse cx="174.801" cy="407.662" rx="45.117" ry="43.891" style="fill:#ff8bb8;fill-opacity:0.85;"/><path d="M454.271,358.837c-28.062,1.528 -47.194,26.145 -85.016,17.696c-24.058,-5.374 -46.176,-31.808 -82.455,-37.723c-67.428,-10.993 -96.522,24.941 -93.072,44.93c1.497,8.668 11.022,19.105 19.247,29.656c19.73,25.313 125.227,36.389 167.477,38.981c42.251,2.591 185.638,34.258 183.65,-26.692c-0.179,-5.489 39.334,-0.407 59.279,-7.436c6.77,-2.386 8.582,-13.618 9.469,-17.082c3.121,-12.198 -34.083,-34.642 -82.188,-28.346c-38.867,5.087 -59.544,-15.991 -96.391,-13.984Z" style="fill:#74e0c9;fill-opacity:0.85;"/><path d="M122.606,325.84c-19.391,-18.417 -49.696,-13.084 -68.218,-45.881c-11.78,-20.861 -7.035,-56.352 -26.387,-86.15c-51.566,-79.399 -73.242,-54.864 -80.804,-9.423c-5.488,32.973 33.875,129.497 59.527,160.939c25.651,31.442 96.13,155.504 139.002,107.865c5.172,-5.747 50.377,37.288 62.561,29.355c10.874,-7.079 2.897,-50.066 -33.009,-78.848c-29.01,-23.255 -27.209,-53.675 -52.672,-77.857Z" style="fill:#78a2f1;fill-opacity:0.65;"/><path d="M206.862,405.638c0,0 -40.344,-57.198 35.79,-80.089c51.108,-15.367 125.013,28.36 190.885,33.006c96.326,6.793 129.163,-38.578 183.836,-40.04c69.561,-1.861 110.975,31.025 142.476,28.593c35.578,-2.747 72.545,-22.606 115.258,-25.81c109.851,-8.24 -37.126,113.57 -37.126,113.57l-93.125,-44.7l-337.166,0l-200.828,15.47Z" style="fill:#86d6a6;fill-opacity:0.65;"/><path d="M335.525,409.827c0,0 19.867,-83.594 112.51,-84.939c29.261,-0.424 70.14,21.065 106.727,38.65c53.863,25.888 74.628,17.363 113.2,19.553c19.778,1.123 69.867,2.849 109.098,-12.576c31.044,-12.207 60.883,-36.809 94.742,-42.058c55.015,-8.528 88.198,12.036 88.198,12.036l-11.818,69.334l-612.657,0Z" style="fill:#52c9d8;fill-opacity:0.85;"/><path d="M-42.553,107.594c5.979,18.127 13.061,91.101 34.428,93.613c8.91,1.048 3.766,4.587 18.513,-7.854c5.196,-4.384 15.305,-18.923 20.045,-38.658c3.42,-14.24 4.974,-29.704 -1.482,-49.277c-6.339,-19.217 -15.631,-28.194 -22.492,-41.589c-9.337,-18.231 -13.186,-73.434 -17.551,-91.609c-3.407,-14.188 -0.731,24.425 -6.876,13.879c-7.355,-12.62 -24.893,-7.985 -27.582,-7.098c-20.611,6.799 -6.345,100.272 2.997,128.593Z" style="fill:#4fbeef;fill-opacity:0.85;"/><path d="M970.109,337.975c0,0 -85.885,-101.633 -102.195,-93.152c-36.586,19.026 44.684,205.567 46.111,185.31l56.272,-8.554l-0.188,-83.604Z" style="fill:#e8a246;fill-opacity:0.85;"/><path d="M44.741,387.906c0,0 85.885,-101.633 102.196,-93.151c36.585,19.025 -44.685,205.566 -46.112,185.309l-56.271,-8.554l0.187,-83.604Z" style="fill:#b846e8;fill-opacity:0.85;"/><path d="M585.599,379.552c29.833,-22.684 98.269,-65.022 195.684,-56.031c71.578,6.607 155.346,37.755 161.91,40.55c46.937,19.989 107.916,110.156 65.217,125.218c-102.287,36.082 -489.017,-1.816 -482.273,-15.918c0,0 37.214,-76.903 59.462,-93.819Z" style="fill:#e47475;fill-opacity:0.75;"/><path d="M954.975,239.314c0,0 -58.636,1.478 -60.666,22.07c-4.554,46.192 160.854,45.783 146.501,34.419l-85.835,-56.489Z" style="fill:#f19a7c;fill-opacity:0.75;"/><ellipse cx="809.414" cy="214.169" rx="11.067" ry="10.862" style="fill:#8876ea;"/><path d="M997.013,404.163c54.246,-69.711 -13.569,-347.963 -13.569,-347.963l-40.89,231.117c-1.414,21.351 -17.161,42.089 -29.952,50.13c-54.353,34.171 -93.304,-33.912 -155.684,-15.812c-39.489,11.457 -76.247,45.348 -103.55,49.264c-56.612,8.12 -73.244,-23.668 -104.006,-29.283c-52.069,-9.504 -75.007,27.612 -102.71,27.595c-27.703,-0.017 -44.629,-29.846 -98.108,-26.075c-22.743,1.604 -36.345,26.774 -92.949,18.584c-27.299,-3.949 -53.989,-28.819 -93.466,-40.325c-62.363,-18.176 -63.344,36.453 -139.65,-7.756c-13.059,-7.565 -23.293,-16.71 -31.21,-26.908l0.093,-188.868c-0.074,0.163 -54.234,119.138 -0.093,188.868l0.251,113.518l475.472,0l475.511,0l54.51,3.914Z" style="fill:#3e8be7;fill-opacity:0.75;"/><path d="M-8.815,241.153c0,0 -38.338,100.224 25.624,138.153c47.658,28.261 43.894,-11.647 83.791,-2.355c24.967,5.815 40.588,26.174 57.634,28.691c35.345,5.218 50.447,-42.728 78.232,-49.703c72.583,-18.222 86.833,51.186 86.833,51.186l5.051,20.927l-337.165,0l0,-186.899Z" style="fill:#b65599;fill-opacity:0.85;"/><ellipse cx="39.194" cy="194.165" rx="7.282" ry="8.29" style="fill:#d876ea;"/><path d="M902.091,360.14c3.743,1.463 5.43,6.11 3.765,10.372c-1.665,4.261 -6.056,6.534 -9.799,5.072c-3.744,-1.463 -5.431,-6.11 -3.766,-10.372c1.665,-4.262 6.056,-6.534 9.8,-5.072Z" style="fill:#e4605f;"/><path d="M651.579,286.821c-0.085,-4.018 2.986,-7.346 6.853,-7.428c3.867,-0.082 7.075,3.114 7.16,7.131c0.085,4.018 -2.985,7.347 -6.852,7.429c-3.867,0.082 -7.076,-3.114 -7.161,-7.132Z" style="fill:#686ddf;"/><ellipse cx="40.991" cy="235.411" rx="3.217" ry="3.663" style="fill:#ea8c76;"/><path d="M-18.777,290.985c0,0 41.828,-78.329 64.72,-66.928c51.351,25.573 -62.717,249.116 -64.72,221.887l0,-154.959Z" style="fill:#eba446;fill-opacity:0.85;"/><path d="M676.743,425.466c0,0 -55.087,-57.954 -41.577,-79.156c30.303,-47.561 188.52,112.408 166.235,109.18l-124.658,-30.024Z" style="fill:#dc82c3;fill-opacity:0.85;"/><path d="M733.222,443.987c0,0 -53.917,-120.247 -36.283,-137.058c39.554,-37.71 158.817,161.387 137.894,152.067l-101.611,-15.009Z" style="fill:#e89346;fill-opacity:0.85;"/><ellipse cx="59.217" cy="395.214" rx="67.301" ry="60.612" style="fill:#7974e4;fill-opacity:0.85;"/><path d="M285.478,362.608c52.444,-16.543 83.816,39.468 68.931,71.154c-9.35,19.904 -25.976,25.16 -45.802,25.16c-19.826,0 -66.831,-0.927 -60.159,-50.599c2.998,-22.312 19.797,-40.28 37.03,-45.715Z" style="fill:#cdbc2e;fill-opacity:0.85;"/><path d="M966.645,265.057c0,0 -28.639,4.477 -39.346,49.176c-8.47,35.361 1.112,50.975 -13.241,65.529c-17.919,18.171 -68.913,-5.596 -100.185,6.6c-14.989,5.846 -28.974,22.907 -28.974,22.907l181.746,0l0,-144.212" style="fill:#de83d8;fill-opacity:0.85;"/><path d="M308.26,369.648c0,0 0.287,-2.568 -1.039,-4.12c-1.972,-2.309 -6.409,-2.377 -7.725,2.089c-1.73,5.873 6.51,10.099 8.764,2.031l0,0Z" style="fill:#e86546;fill-opacity:0.75;"/><ellipse cx="177.442" cy="345.106" rx="2.641" ry="3.007" style="fill:#e396de;fill-opacity:0.85;"/><ellipse cx="189.318" cy="336.963" rx="4.511" ry="5.135" style="fill:#e396de;fill-opacity:0.85;"/><ellipse cx="886.212" cy="132.326" rx="4.166" ry="4.258" style="fill:#e47475;fill-opacity:0.65;"/><ellipse cx="894.094" cy="119.452" rx="2.13" ry="2.15" style="fill:#e47475;fill-opacity:0.65;"/><ellipse cx="884.549" cy="211.815" rx="3.589" ry="3.759" style="fill:#e02ae8;fill-opacity:0.65;"/><path d="M684.613,269.689c-0.071,-3.377 2.51,-6.175 5.76,-6.244c3.25,-0.068 5.947,2.618 6.019,5.995c0.071,3.377 -2.51,6.175 -5.76,6.244c-3.25,0.068 -5.947,-2.618 -6.019,-5.995Z" style="fill:#cd972e;fill-opacity:0.75;"/><path d="M709.802,277.996c-0.032,-1.5 1.114,-2.742 2.557,-2.772c1.443,-0.031 2.641,1.162 2.672,2.661c0.032,1.5 -1.114,2.742 -2.557,2.772c-1.443,0.031 -2.64,-1.162 -2.672,-2.661Z" style="fill:#2e9ccd;fill-opacity:0.6;"/><path d="M568.765,357.45c-6.826,-4.787 0.511,-22.076 5.179,-29.857c2.772,-4.622 14.127,-22.858 22.827,-16.83c7.932,5.497 -0.426,22.87 -5.093,30.651c-4.668,7.781 -15.531,21.213 -22.913,16.036Z" style="fill:#baa7f0;"/><path d="M119.185,296.239c-4.557,0.955 -7.441,-10.532 -8.16,-16.34c-0.427,-3.449 -1.936,-17.254 3.847,-18.505c5.273,-1.141 7.754,10.862 8.473,16.67c0.719,5.807 0.769,17.142 -4.16,18.175Z" style="fill:#ad7ee0;"/><path d="M71.321,108.728c-6.564,-0.774 -8.069,-6.286 -7.803,-9.202c0.159,-1.732 0.87,-8.638 9.402,-8.295c7.635,0.306 8.44,7.173 8.174,10.09c-0.267,2.916 -2.673,8.245 -9.773,7.407Z" style="fill:#fc45ec;"/><path d="M89.034,127.369c-2.898,-0.343 -3.547,-2.94 -3.421,-4.318c0.074,-0.818 0.408,-4.082 4.177,-3.949c3.372,0.118 3.708,3.357 3.582,4.735c-0.126,1.378 -1.204,3.902 -4.338,3.532Z" style="fill:#7e91e0;"/><path d="M217.088,301.544c-2.596,-7.587 3.238,-12.828 6.513,-14.241c1.945,-0.84 9.603,-2.075 13.138,5.763c3.816,8.463 -3.306,13.361 -6.581,14.775c-3.275,1.413 -10.262,1.909 -13.07,-6.297Z" style="fill:#f197f6;"/><path d="M238.376,265.488c-1.772,-5.179 1.959,-7.834 4.194,-8.798c1.328,-0.573 6.702,-2.637 8.967,3.933c2.065,5.991 -2.004,8.198 -4.24,9.163c-2.235,0.964 -7.004,1.303 -8.921,-4.298Z" style="fill:#97b2f6;"/><path d="M428.281,367.794c-5.599,1.57 -8.687,-2.72 -9.273,-5.273c-0.347,-1.516 -1.495,-7.635 5.612,-9.645c6.481,-1.834 8.903,3.199 9.488,5.752c0.586,2.553 0.229,7.468 -5.827,9.166Z" style="fill:#6579ea;"/><path d="M411.444,350.628c-4.964,0.288 -6.792,-5.038 -6.928,-7.706c-0.08,-1.585 -0.189,-7.921 6.115,-8.304c5.747,-0.349 7.089,5.199 7.224,7.867c0.136,2.668 -1.042,7.833 -6.411,8.143Z" style="fill:#7bbcf0;"/><path d="M840.826,322.323c-2.921,5.965 -8.614,5.4 -10.968,4.201c-1.398,-0.711 -6.853,-3.806 -3.159,-11.39c3.37,-6.914 8.94,-5.665 11.295,-4.467c2.354,1.198 5.992,5.205 2.832,11.656Z" style="fill:#c2e777;"/><path d="M817.555,291.575c3.186,3.3 -0.815,10.43 -3.277,13.435c-1.462,1.785 -7.434,8.765 -11.497,4.594c-3.705,-3.804 0.793,-10.821 3.255,-13.826c2.462,-3.005 8.073,-7.772 11.519,-4.203Z" style="fill:#6ad394;"/><ellipse cx="25.325" cy="30.582" rx="7.282" ry="7.518" style="fill:#ea76b1;"/><path d="M966.837,173.535c0,0 -19.675,-1.488 -18.762,19.711c0.888,20.615 27.231,17.843 22.554,5.228l-3.792,-24.939Z" style="fill:#e86546;fill-opacity:0.75;"/></g></svg>