<?xml version="1.0" encoding="UTF-8" standalone="no"?><!DOCTYPE svg PUBLIC "-//W3C//DTD SVG 1.1//EN" "http://www.w3.org/Graphics/SVG/1.1/DTD/svg11.dtd"><svg width="100%" height="100%" viewBox="0 0 612 277" version="1.1" xmlns="http://www.w3.org/2000/svg" xmlns:xlink="http://www.w3.org/1999/xlink" xml:space="preserve" xmlns:serif="http://www.serif.com/" style="fill-rule:evenodd;clip-rule:evenodd;stroke-linejoin:round;stroke-miterlimit:2;"><rect id="ThisYearBubbles" x="0" y="0" width="612" height="276.854" style="fill:none;"/><clipPath id="_clip1"><rect x="0" y="0" width="612" height="276.854"/></clipPath><g clip-path="url(#_clip1)"><path d="M-42.631,204.038c189.193,-212.611 435.787,-178.734 397.786,-32.881c-14.257,54.723 64.357,66.692 100.102,67.254c38.531,0.607 156.743,-5.972 156.743,-5.972l0,208.66l-658.226,0l3.595,-237.061l3.197,36.207l-3.197,-36.207Z" style="fill:#6ccacd;"/><path d="M611.938,441.099l-611.938,0l-2.418,-275.419c-2.983,8.542 49.554,41.321 123.427,38.15c48.716,-2.091 89.809,-12.087 131.308,-44.28c46.818,-36.318 103.743,-87.408 152.849,-115.673c156.954,-90.339 237.111,62.788 237.111,62.788l-30.339,334.434Z" style="fill:#f26c72;"/><path d="M-66.953,131.529c0,0 19.942,-45.557 128.668,-56.466c88.279,-8.858 135.851,46.398 245.724,92.326c99.15,41.445 272.916,7.066 304.499,-1.874c0,0 -2.612,259.353 -2.612,259.353l-620.706,-0.143l-55.573,-293.196Z" style="fill:#f99c1c;"/><path d="M-1.769,218.058c5.682,-0.047 79.575,16.323 172.321,14.105c81.347,-1.945 125.107,-10.403 177.807,-37.879c25.444,-13.265 72.194,-48.543 115.979,-108.997c68.18,-94.137 172.016,-73.821 184.123,-21.82c9.403,40.39 -22.002,115.708 -22.002,115.708l-14.459,261.924l-620.439,0l6.67,-223.041l0,0Z" style="fill:#009ed2;"/></g></svg>